<svg width="611" height="407" viewBox="0 0 611 407" fill="none" xmlns="http://www.w3.org/2000/svg">
<path d="M528.792 148.278C528.792 148.278 513.395 118.624 539.676 104.354C567.961 88.986 589.647 117.533 582.967 141.041C576.287 164.541 536.987 163.5 528.792 148.278Z" fill="#EBD6E6"/>
<path d="M42.3299 170.166C16.3584 147.203 68.106 123.882 67.0632 156.719C65.4176 163.842 56.2037 179.47 42.3299 170.166Z" fill="#EBD6E6"/>
<path d="M475.162 373.283C468.319 373.764 440.677 374.203 445.574 350.817C450.38 332.787 424.229 333.357 432.034 315.937C433.916 309.344 425.443 311.598 423.806 301.668C422.168 291.745 428.368 283.442 439.089 283.491C449.81 283.548 447.407 294.659 450.901 298.762C454.396 302.864 459.806 299.087 463.39 308.871C467.187 322.636 460.8 324.313 472.458 331.118" stroke="#D4A5CF" stroke-miterlimit="10"/>
<path d="M463.651 346.682C458.356 335.912 452.743 325.29 446.861 314.83C444.865 311.281 442.836 307.756 440.775 304.248C440.376 303.572 439.325 304.183 439.716 304.866C446.323 316.132 452.612 327.585 458.551 339.217C459.92 341.903 461.264 344.59 462.6 347.292C462.942 348.008 463.993 347.39 463.651 346.682Z" fill="#D4A5CF"/>
<path d="M436.278 324.264C440.832 324.736 445.386 325.208 449.94 325.68C450.592 325.745 451.252 325.819 451.904 325.884C452.686 325.965 452.678 324.744 451.904 324.663C447.35 324.191 442.796 323.719 438.242 323.246C437.59 323.181 436.93 323.108 436.278 323.043C435.496 322.962 435.504 324.183 436.278 324.264Z" fill="#D4A5CF"/>
<path d="M441.745 316.36C441.794 319.014 436.971 319.014 437.02 316.36C436.971 313.707 441.794 313.707 441.745 316.36Z" stroke="#D4A5CF" stroke-miterlimit="10"/>
<path d="M447.008 297.956C445.517 300.634 441.337 298.224 442.91 295.595C444.409 292.925 448.58 295.326 447.008 297.956Z" stroke="#D4A5CF" stroke-miterlimit="10"/>
<path d="M456.523 351.549C456.58 354.854 450.568 354.854 450.633 351.549C450.576 348.236 456.588 348.236 456.523 351.549Z" stroke="#D4A5CF" stroke-miterlimit="10"/>
<path d="M442.787 291.916C442.804 293.275 440.669 293.275 440.686 291.916C440.669 290.548 442.812 290.548 442.787 291.916Z" stroke="#D4A5CF" stroke-miterlimit="10"/>
<path d="M515.431 371.012C509.761 366.975 509.207 341.367 532.433 336.181C544.295 333.536 542.397 327.602 544.792 319.967C547.187 312.331 550.193 311.77 556.987 310.736C563.782 309.702 558.682 300.455 566.739 295.099C574.796 289.743 585.615 289.336 589.647 301.041C593.061 310.956 583.391 315.319 581.419 319.926C579.448 324.533 585.183 330.76 578.193 337.704C571.203 344.655 563.717 339.421 563.627 346.78C563.537 354.138 560.262 367.553 553.158 370.312C544.376 373.731 519.904 374.203 515.431 371.012Z" stroke="#D4A5CF" stroke-miterlimit="10"/>
<path d="M523.325 373.926C526.462 370.19 529.712 366.552 532.857 362.824C540.662 353.552 548.287 344.118 555.733 334.553C561.134 327.61 566.446 320.593 571.643 313.487C572.108 312.852 571.049 312.242 570.584 312.868C561.843 324.818 552.784 336.531 543.472 348.041C537.672 355.213 531.765 362.311 525.737 369.295C524.653 370.548 523.529 371.786 522.462 373.055C521.957 373.666 522.812 374.529 523.325 373.926Z" fill="#D4A5CF"/>
<path d="M531.22 336.482C523.187 303.043 544.042 321.619 558.682 294.952C567.399 274.586 546.055 267.179 556.091 258.656C566.128 250.133 568.931 220.846 554.226 215.807C535.163 209.279 518.022 221.22 515.692 236.955C513.892 249.091 522.038 257.565 500.849 266.462C479.659 275.359 482.934 286.405 487.285 307.528C491.635 328.652 477.313 320.911 466.185 338.745C457.362 352.876 469.761 367.292 475.285 372.665L518.177 373.397" stroke="#D4A5CF" stroke-miterlimit="10"/>
<path d="M484.026 372.657C485.769 368.636 487.521 364.623 489.272 360.61C493.59 350.719 497.916 340.829 502.258 330.956C507.798 318.363 513.362 305.778 518.975 293.21C524.401 281.049 529.867 268.912 535.439 256.816C539.342 248.343 543.236 239.845 547.521 231.558C547.847 230.923 548.181 230.288 548.523 229.661C548.898 228.969 547.839 228.351 547.464 229.043C543.366 236.686 539.765 244.606 536.116 252.462C530.649 264.248 525.305 276.092 519.993 287.952C514.323 300.626 508.694 313.316 503.097 326.023C498.519 336.417 493.957 346.82 489.419 357.223C487.293 362.091 485.052 366.918 483.056 371.835C483.032 371.9 482.999 371.973 482.967 372.038C482.657 372.754 483.708 373.373 484.026 372.657Z" fill="#D4A5CF"/>
<path d="M523.105 283.426C531.496 282.962 539.888 282.498 548.279 282.034C549.476 281.969 550.666 281.904 551.863 281.839C552.645 281.798 552.653 280.577 551.863 280.618C543.472 281.082 535.081 281.546 526.69 282.01C525.492 282.075 524.303 282.14 523.105 282.205C522.323 282.246 522.323 283.467 523.105 283.426Z" fill="#D4A5CF"/>
<path d="M494.071 348.863C500.702 348.114 507.333 347.374 513.965 346.625C514.893 346.519 515.822 346.413 516.751 346.316C517.525 346.226 517.533 345.005 516.751 345.095C510.12 345.843 503.488 346.584 496.857 347.333C495.928 347.439 494.999 347.545 494.071 347.642C493.297 347.732 493.288 348.953 494.071 348.863Z" fill="#D4A5CF"/>
<path d="M491.382 277.012C493.289 281.285 495.195 285.559 497.101 289.84C500.124 296.621 503.154 303.41 506.177 310.19C506.877 311.761 507.578 313.332 508.279 314.911C508.596 315.628 509.647 315.009 509.338 314.293C507.431 310.019 505.525 305.746 503.619 301.464C500.596 294.684 497.566 287.895 494.543 281.114C493.843 279.543 493.142 277.972 492.441 276.393C492.116 275.677 491.065 276.295 491.382 277.012Z" fill="#D4A5CF"/>
<path d="M532.873 233.479C529.623 238.371 523.668 234.317 527.032 229.506C530.275 224.614 536.23 228.66 532.873 233.479Z" stroke="#D4A5CF" stroke-miterlimit="10"/>
<path d="M533.9 244.639C533.94 247.203 529.908 247.203 529.949 244.639C529.908 242.075 533.94 242.075 533.9 244.639Z" stroke="#D4A5CF" stroke-miterlimit="10"/>
<path d="M548.238 295.587C548.311 300.569 540.482 300.569 540.556 295.587C540.482 290.606 548.311 290.606 548.238 295.587Z" stroke="#D4A5CF" stroke-miterlimit="10"/>
<path d="M65.8005 372.608C61.2384 373.804 40.5866 377.223 40.9206 360.797C41.0917 352.404 38.6395 352.706 33.7189 349.417C28.7984 346.128 28.9124 344.028 29.3442 339.331C29.776 334.635 25.0916 336.906 21.9715 330.736C18.2403 323.345 22.7372 317.834 29.9878 316.507C37.2465 315.18 37.0346 323.003 39.9186 325.331C42.8025 327.659 46.7862 322.653 52.3259 329.441C55.9431 333.878 50.33 343.996 55.6498 343.051" stroke="#D4A5CF" stroke-miterlimit="10"/>
<path d="M56.2771 357.988C49.1895 348.416 41.7027 339.144 33.8819 330.166C33.3687 329.571 32.5051 330.442 33.0184 331.029C40.774 339.934 48.1956 349.116 55.218 358.607C55.6824 359.226 56.7496 358.623 56.2771 357.988Z" fill="#D4A5CF"/>
<path d="M44.2607 329.726C44 333.634 43.7393 337.549 43.4786 341.456C43.4379 342.01 43.4053 342.563 43.3646 343.117C43.5683 342.913 43.7719 342.71 43.9756 342.506C40.3829 342.807 36.7902 343.1 33.2057 343.402C32.4236 343.467 32.4236 344.688 33.2057 344.623C36.7984 344.321 40.3911 344.028 43.9756 343.727C44.3259 343.695 44.5622 343.467 44.5866 343.117C44.8473 339.209 45.108 335.294 45.3687 331.387C45.4094 330.833 45.442 330.28 45.4827 329.726C45.5316 328.937 44.3096 328.945 44.2607 329.726Z" fill="#D4A5CF"/>
<path d="M33.556 275.425C6.17505 241.294 58.2241 216.279 69.7924 256.76C71.4054 267.195 64.0979 274.48 83.104 282.132C102.11 289.784 99.1774 299.283 95.267 317.443C91.3647 335.612 104.204 328.953 114.192 344.281C122.102 356.434 110.982 368.823 106.029 373.446L67.1528 373.259C51.0632 364.672 55.3891 345.372 57.2872 331.696C58.6966 318.046 39.055 324.151 31.2342 306.633C23.4134 289.116 42.5662 282.751 33.556 275.425Z" stroke="#D4A5CF" stroke-miterlimit="10"/>
<path d="M99.2018 372.885C97.6376 369.425 96.0653 365.974 94.493 362.515C90.6233 354.008 86.7374 345.51 82.8433 337.012C77.8738 326.186 72.8799 315.368 67.8534 304.566C62.998 294.139 58.11 283.719 53.1242 273.349C49.6049 266.039 46.1018 258.697 42.2566 251.55C41.9633 251.005 41.6619 250.451 41.3604 249.906C40.9775 249.222 39.9185 249.833 40.3014 250.524C43.9755 257.085 47.2097 263.907 50.4847 270.671C55.389 280.805 60.1792 290.988 64.945 301.188C70.0367 312.079 75.0795 322.995 80.0978 333.919C84.1956 342.832 88.2771 351.762 92.3423 360.691C93.6457 363.548 94.9411 366.406 96.2364 369.263C96.8392 370.598 97.3606 372.038 98.0775 373.316C98.1101 373.373 98.1346 373.438 98.159 373.495C98.4686 374.212 99.5195 373.593 99.2018 372.885Z" fill="#D4A5CF"/>
<path d="M63.1365 295.587C55.6008 295.188 48.0733 294.79 40.5376 294.391C39.4704 294.334 38.4113 294.277 37.3441 294.22C36.562 294.179 36.562 295.4 37.3441 295.441C44.8798 295.84 52.4073 296.238 59.943 296.637C61.0102 296.694 62.0693 296.751 63.1365 296.808C63.9267 296.849 63.9186 295.628 63.1365 295.587Z" fill="#D4A5CF"/>
<path d="M89.1814 351.867C80.6926 350.955 72.2119 350.035 63.7231 349.124C62.5418 348.994 61.3524 348.871 60.1712 348.741C59.3891 348.66 59.3972 349.881 60.1712 349.962C68.66 350.874 77.1407 351.794 85.6295 352.705C86.8108 352.836 88.0002 352.958 89.1814 353.088C89.9635 353.169 89.9554 351.948 89.1814 351.867Z" fill="#D4A5CF"/>
<path d="M90.5988 290.639C88.888 294.318 87.1772 297.989 85.4664 301.668C82.7536 307.496 80.0407 313.333 77.3279 319.161C76.7006 320.512 76.0652 321.872 75.4379 323.223C75.112 323.931 76.1629 324.55 76.4969 323.842C78.2077 320.162 79.9185 316.491 81.6293 312.812C84.3422 306.984 87.055 301.147 89.7679 295.319C90.3952 293.968 91.0306 292.608 91.6579 291.257C91.9838 290.541 90.9328 289.922 90.5988 290.639Z" fill="#D4A5CF"/>
<path d="M54.3869 253.772C57.2056 257.916 62.6639 254.603 59.6333 250.353C56.8064 246.21 51.3482 249.523 54.3869 253.772Z" stroke="#D4A5CF" stroke-miterlimit="10"/>
<path d="M53.4582 263.369C53.4256 265.575 57.0428 265.575 57.002 263.369C57.0428 261.163 53.4256 261.163 53.4582 263.369Z" stroke="#D4A5CF" stroke-miterlimit="10"/>
<path d="M40.603 307.187C40.5378 311.468 47.5602 311.468 47.4951 307.187C47.5602 302.905 40.5378 302.905 40.603 307.187Z" stroke="#D4A5CF" stroke-miterlimit="10"/>
<path d="M202.575 294.765C230.298 269.751 189.874 241.595 174.607 274.114C171.829 282.685 176.986 289.816 159.927 293.666C142.876 297.516 144.049 305.917 144.856 321.749C145.662 337.582 135.756 330.223 125.255 341.774C116.937 350.931 124.603 362.881 128.147 367.455L160.921 372.592C175.65 367.545 174.64 350.703 174.901 338.925C175.577 327.236 191.284 335.05 200.261 321.367C209.247 307.683 193.988 299.714 202.575 294.765Z" stroke="#D4A5CF" stroke-miterlimit="10"/>
<path d="M134.917 368.546C136.701 365.852 138.493 363.158 140.285 360.471C144.676 353.878 149.076 347.293 153.491 340.707C159.161 332.25 164.856 323.801 170.575 315.376C176.09 307.26 181.622 299.161 187.235 291.11C191.202 285.421 195.161 279.698 199.39 274.187C199.699 273.78 200.017 273.373 200.335 272.974C200.815 272.364 199.96 271.493 199.471 272.112C195.495 277.126 191.846 282.409 188.172 287.643C182.656 295.514 177.222 303.443 171.813 311.387C166.029 319.893 160.277 328.416 154.542 336.955C149.858 343.931 145.19 350.915 140.53 357.899C139.039 360.138 137.54 362.384 136.049 364.623C135.365 365.657 134.542 366.682 133.955 367.781C133.931 367.83 133.898 367.871 133.866 367.919C133.426 368.587 134.485 369.197 134.917 368.546Z" fill="#D4A5CF"/>
<path d="M174.827 308.839C181.222 309.531 187.609 310.215 194.004 310.907C194.917 311.004 195.829 311.102 196.742 311.2C197.524 311.281 197.516 310.06 196.742 309.979C190.347 309.287 183.96 308.603 177.564 307.911C176.652 307.814 175.74 307.716 174.827 307.618C174.045 307.537 174.053 308.758 174.827 308.839Z" fill="#D4A5CF"/>
<path d="M145.206 352.689C152.465 353.072 159.723 353.463 166.982 353.845C168.008 353.902 169.035 353.951 170.061 354.008C170.843 354.049 170.843 352.828 170.061 352.787C162.803 352.404 155.544 352.014 148.285 351.631C147.259 351.574 146.232 351.525 145.206 351.468C144.424 351.428 144.424 352.649 145.206 352.689Z" fill="#D4A5CF"/>
<path d="M151.381 300.154C153.809 308.758 156.229 317.37 158.656 325.974C159.007 327.203 159.349 328.441 159.699 329.67C159.911 330.427 161.092 330.101 160.88 329.344C158.453 320.74 156.033 312.128 153.605 303.524C153.255 302.295 152.913 301.058 152.563 299.828C152.351 299.071 151.169 299.397 151.381 300.154Z" fill="#D4A5CF"/>
<path d="M187.992 273.691C185.052 276.8 180.913 273.268 184.041 270.101C186.982 266.992 191.121 270.524 187.992 273.691Z" stroke="#D4A5CF" stroke-miterlimit="10"/>
<path d="M192.31 320.561C191.781 324.175 185.866 323.222 186.502 319.625C187.031 316.002 192.954 316.963 192.31 320.561Z" stroke="#D4A5CF" stroke-miterlimit="10"/>
<path d="M61.4258 158.583L162.363 266.984L195.593 206.487L222.803 270.565L280.066 215.897L333.565 294.823L390.144 156.744L461.02 182.678L517.224 104.241L543.285 126.447L571.236 82.7837" stroke="#D4A5CF" stroke-miterlimit="10" stroke-linecap="round"/>
<path d="M165.206 265.991C165.206 267.781 163.748 269.238 161.956 269.238C160.163 269.238 158.705 267.781 158.705 265.991C158.705 264.2 160.163 262.743 161.956 262.743C163.748 262.743 165.206 264.2 165.206 265.991Z" fill="#D4A5CF"/>
<path d="M63.772 157.362C63.772 159.153 62.3138 160.61 60.5215 160.61C58.7292 160.61 57.271 159.153 57.271 157.362C57.271 155.571 58.7292 154.114 60.5215 154.114C62.3138 154.114 63.772 155.563 63.772 157.362Z" fill="#D4A5CF"/>
<path d="M226.534 270.297C226.534 272.087 225.076 273.545 223.284 273.545C221.491 273.545 220.033 272.087 220.033 270.297C220.033 268.506 221.491 267.049 223.284 267.049C225.076 267.049 226.534 268.506 226.534 270.297Z" fill="#D4A5CF"/>
<path d="M336.816 294.823C336.816 296.613 335.357 298.07 333.565 298.07C331.773 298.07 330.315 296.613 330.315 294.823C330.315 293.032 331.773 291.575 333.565 291.575C335.357 291.575 336.816 293.032 336.816 294.823Z" fill="#D4A5CF"/>
<path d="M393.394 157.281C393.394 159.071 391.936 160.528 390.144 160.528C388.352 160.528 386.893 159.071 386.893 157.281C386.893 155.49 388.352 154.033 390.144 154.033C391.936 154.033 393.394 155.49 393.394 157.281Z" fill="#D4A5CF"/>
<path d="M464.278 182.376C464.278 184.167 462.82 185.624 461.028 185.624C459.236 185.624 457.777 184.167 457.777 182.376C457.777 180.585 459.236 179.128 461.028 179.128C462.82 179.128 464.278 180.577 464.278 182.376Z" fill="#D4A5CF"/>
<path d="M520.279 103.744C520.279 105.535 518.82 106.992 517.028 106.992C515.236 106.992 513.778 105.535 513.778 103.744C513.778 101.953 515.236 100.496 517.028 100.496C518.82 100.496 520.279 101.953 520.279 103.744Z" fill="#D4A5CF"/>
<path d="M546.405 126.447C546.405 128.237 544.947 129.694 543.155 129.694C541.362 129.694 539.904 128.237 539.904 126.447C539.904 124.656 541.362 123.199 543.155 123.199C544.947 123.199 546.405 124.648 546.405 126.447Z" fill="#D4A5CF"/>
<path d="M566.039 84.5987L571.342 87.5698L575.098 77.061L566.039 84.5987Z" fill="#D4A5CF"/>
<path fill-rule="evenodd" clip-rule="evenodd" d="M91.4054 118.127C92.5133 118.705 93.5154 119.413 94.4115 120.244L97.6213 119.104L100.644 123.866L98.2404 126.283C98.607 127.439 98.827 128.66 98.8677 129.906L101.947 131.363L100.709 136.865L97.3036 136.874C96.7251 137.981 96.0164 138.982 95.1854 139.877L96.326 143.084L91.5602 146.104L89.1406 143.703C87.9838 144.069 86.7618 144.281 85.5153 144.33L84.0571 147.407L78.5499 146.169L78.5418 142.767C77.4338 142.189 76.4318 141.481 75.5357 140.65L72.3259 141.79L69.3035 137.028L71.7067 134.611C71.3401 133.455 71.1283 132.234 71.0794 130.988L68 129.531L69.2383 124.029L72.6436 124.02C73.222 122.913 73.9308 121.912 74.7617 121.017L73.6212 117.81L78.387 114.79L80.8066 117.191C81.9634 116.825 83.1854 116.613 84.4318 116.564L85.8901 113.487L91.3972 114.725L91.4054 118.127ZM86.5581 124.598C83.2994 123.866 80.0571 125.917 79.332 129.173C78.5988 132.429 80.6518 135.669 83.9104 136.393C87.1691 137.126 90.4115 135.075 91.1365 131.819C91.8616 128.563 89.8168 125.331 86.5581 124.598Z" stroke="#D4A5CF" stroke-miterlimit="10"/>
<path fill-rule="evenodd" clip-rule="evenodd" d="M455.675 103.101C456.539 103.549 457.329 104.11 458.03 104.762L460.547 103.866L462.918 107.602L461.028 109.499C461.313 110.411 461.484 111.363 461.525 112.34L463.936 113.488L462.967 117.802L460.295 117.81C459.846 118.673 459.284 119.462 458.633 120.162L459.529 122.678L455.789 125.046L453.891 123.158C452.979 123.443 452.026 123.614 451.048 123.654L449.899 126.064L445.582 125.095L445.573 122.425C444.71 121.978 443.92 121.416 443.219 120.765L440.702 121.66L438.331 117.924L440.221 116.027C439.936 115.116 439.765 114.163 439.724 113.186L437.313 112.039L438.282 107.724L440.954 107.716C441.402 106.854 441.964 106.064 442.616 105.364L441.72 102.849L445.459 100.48L447.358 102.368C448.27 102.083 449.223 101.913 450.201 101.872L451.349 99.4624L455.667 100.431L455.675 103.101ZM451.863 108.18C449.305 107.611 446.763 109.214 446.193 111.77C445.622 114.326 447.227 116.866 449.785 117.436C452.343 118.005 454.885 116.402 455.455 113.846C456.034 111.29 454.421 108.75 451.863 108.18Z" fill="#D4A5CF"/>
<path fill-rule="evenodd" clip-rule="evenodd" d="M529.761 178.754C530.942 179.373 532.018 180.13 532.979 181.017L536.417 179.796L539.643 184.883L537.069 187.464C537.46 188.701 537.688 190.003 537.745 191.338L541.036 192.901L539.716 198.778L536.075 198.787C535.456 199.967 534.698 201.041 533.81 202.002L535.032 205.437L529.94 208.66L527.358 206.088C526.12 206.479 524.816 206.707 523.48 206.764L521.916 210.052L516.026 208.734L516.018 205.095C514.836 204.485 513.761 203.719 512.8 202.832L509.362 204.053L506.136 198.966L508.71 196.385C508.319 195.148 508.091 193.846 508.034 192.511L504.743 190.948L506.062 185.062L509.704 185.054C510.315 183.874 511.081 182.8 511.969 181.839L510.747 178.404L515.838 175.181L518.421 177.753C519.659 177.362 520.963 177.134 522.299 177.077L523.863 173.789L529.745 175.107L529.761 178.754ZM524.572 185.673C521.085 184.892 517.623 187.081 516.84 190.565C516.058 194.049 518.25 197.509 521.737 198.29C525.223 199.071 528.686 196.882 529.468 193.398C530.25 189.914 528.058 186.454 524.572 185.673Z" stroke="#D4A5CF" stroke-miterlimit="10"/>
<path fill-rule="evenodd" clip-rule="evenodd" d="M475.219 76.0598C476.099 76.5157 476.897 77.0855 477.606 77.7367L480.156 76.8331L482.551 80.6101L480.645 82.523C480.938 83.4428 481.109 84.4115 481.142 85.3964L483.586 86.5604L482.608 90.9234L479.903 90.9316C479.447 91.8107 478.877 92.6084 478.225 93.3166L479.13 95.8644L475.349 98.2576L473.427 96.3528C472.506 96.6459 471.537 96.8168 470.551 96.8494L469.394 99.2914L465.019 98.3146L465.011 95.6121C464.131 95.1563 463.333 94.5865 462.624 93.9353L460.074 94.8388L457.679 91.0618L459.594 89.1408C459.301 88.221 459.129 87.2523 459.097 86.2674L456.653 85.1115L457.63 80.7484L460.335 80.7403C460.791 79.8612 461.362 79.0635 462.013 78.3553L461.109 75.8075L464.889 73.4143L466.812 75.3272C467.732 75.0342 468.702 74.8632 469.688 74.8307L470.844 72.3887L475.211 73.3655L475.219 76.0598ZM471.366 81.2043C468.775 80.6264 466.209 82.2544 465.622 84.8347C465.044 87.4233 466.673 89.9873 469.256 90.5734C471.846 91.1514 474.413 89.5234 474.999 86.943C475.586 84.3463 473.956 81.7822 471.366 81.2043Z" stroke="#D4A5CF" stroke-miterlimit="10"/>
<path d="M439.676 239.698H182.217C176.872 239.698 172.538 235.368 172.538 230.028V74.7738C172.538 69.434 176.872 65.1035 182.217 65.1035H439.676C445.02 65.1035 449.354 69.434 449.354 74.7738V230.028C449.354 235.368 445.02 239.698 439.676 239.698Z" fill="white" stroke="#010001" stroke-miterlimit="10"/>
<path d="M439.676 65.1035H182.217C176.872 65.1035 172.538 69.434 172.538 74.7738V79.6009H449.346V74.7738C449.354 69.434 445.02 65.1035 439.676 65.1035Z" fill="#BFBCC0" stroke="#010001" stroke-miterlimit="10"/>
<path d="M182.95 75.9868C184.835 75.9868 186.363 74.4598 186.363 72.5762C186.363 70.6925 184.835 69.1655 182.95 69.1655C181.065 69.1655 179.536 70.6925 179.536 72.5762C179.536 74.4598 181.065 75.9868 182.95 75.9868Z" stroke="#010001" stroke-miterlimit="10"/>
<path d="M199.26 72.5762C199.26 74.4647 197.728 75.9868 195.846 75.9868C193.964 75.9868 192.433 74.4565 192.433 72.5762C192.433 70.6877 193.964 69.1655 195.846 69.1655C197.728 69.1655 199.26 70.6958 199.26 72.5762Z" stroke="#010001" stroke-miterlimit="10"/>
<path d="M212.147 72.5762C212.147 74.4647 210.616 75.9868 208.734 75.9868C206.844 75.9868 205.321 74.4565 205.321 72.5762C205.321 70.6877 206.852 69.1655 208.734 69.1655C210.616 69.1655 212.147 70.6958 212.147 72.5762Z" stroke="#010001" stroke-miterlimit="10"/>
<path d="M302.274 204.273H205.516C204.53 204.273 203.732 203.475 203.732 202.49C203.732 201.505 204.53 200.708 205.516 200.708H302.274C303.26 200.708 304.058 201.505 304.058 202.49C304.058 203.475 303.26 204.273 302.274 204.273Z" fill="#BFBCC0"/>
<path d="M278.29 213.154H205.516C204.53 213.154 203.732 212.356 203.732 211.371C203.732 210.386 204.53 209.588 205.516 209.588H278.29C279.276 209.588 280.074 210.386 280.074 211.371C280.066 212.356 279.276 213.154 278.29 213.154Z" fill="#BFBCC0"/>
<path d="M247.553 222.035H205.516C204.53 222.035 203.732 221.237 203.732 220.252C203.732 219.267 204.53 218.469 205.516 218.469H247.553C248.539 218.469 249.337 219.267 249.337 220.252C249.337 221.237 248.539 222.035 247.553 222.035Z" fill="#BFBCC0"/>
<path d="M313.899 201.969H401.834" stroke="#010001" stroke-width="2" stroke-miterlimit="10" stroke-linecap="round"/>
<path d="M313.899 208.351H369.419" stroke="#010001" stroke-width="2" stroke-miterlimit="10" stroke-linecap="round"/>
<path d="M313.899 214.741H355.39" stroke="#010001" stroke-width="2" stroke-miterlimit="10" stroke-linecap="round"/>
<path d="M313.899 221.123H380.629" stroke="#010001" stroke-width="2" stroke-miterlimit="10" stroke-linecap="round"/>
<path d="M247.015 194.472L262.803 171.648C266.013 167.008 272.408 165.893 277.003 169.173L279.219 170.76C284.726 174.7 292.482 172.217 294.673 165.811L302.339 143.402C305.459 134.285 318.364 134.285 321.476 143.402L325.182 154.244C328.156 162.946 340.27 163.475 344.001 155.066L347.219 147.814C350.429 140.577 360.343 139.666 364.816 146.202C369.517 153.072 380.042 151.639 382.739 143.768L386.323 133.284C389.614 123.654 403.488 124.379 405.753 134.309L419.472 194.472C419.48 194.472 247.496 193.992 247.015 194.472Z" fill="#F19101"/>
<path d="M408.751 172.861C405.745 166.91 397.459 165.803 393.321 171.037C393.182 171.216 393.044 171.404 392.914 171.591C392.914 171.591 388.408 179.82 385.997 181.701C380.066 186.324 372.718 187.342 364.751 176.711L359.773 170.524C356.465 166.414 350.502 165.632 346.241 168.742L340.482 172.95C337.777 174.928 334.078 178.762 331.227 177.216C328.074 175.498 319.634 168.742 319.634 168.742C315.374 165.624 309.41 166.414 306.103 170.524L301.125 176.711C296.319 182.686 286.82 181.139 284.164 173.943L278.021 157.33C274.803 148.62 262.412 148.766 259.406 157.557L247.056 193.658L246.103 194.708C246.103 194.708 246.314 194.708 246.697 194.708L246.575 195.067C246.575 194.358 419.781 194.708 419.781 194.708L408.751 172.861Z" fill="#6348ED"/>
<path d="M213.255 195.042H432.482" stroke="#010001" stroke-miterlimit="10" stroke-linecap="round"/>
<path d="M267.634 107.488V109.035" stroke="#010001" stroke-width="0.4763" stroke-miterlimit="10"/>
<path d="M267.634 112.177V192.16" stroke="#010001" stroke-width="0.4763" stroke-miterlimit="10" stroke-dasharray="3.85 3.85"/>
<path d="M267.634 193.724V195.278" stroke="#010001" stroke-width="0.4763" stroke-miterlimit="10"/>
<path d="M310.877 112.763V197.24" stroke="#010001" stroke-width="0.4763" stroke-miterlimit="10" stroke-dasharray="3.81 3.81"/>
<path d="M396.669 100.35V196.076" stroke="#010001" stroke-width="0.4763" stroke-miterlimit="10" stroke-dasharray="3.81 3.81"/>
<path d="M354.274 130.443V195.278" stroke="#010001" stroke-width="0.4763" stroke-miterlimit="10" stroke-dasharray="3.81 3.81"/>
<path d="M384.262 127.928H353.549C352.938 127.928 352.433 127.431 352.433 126.812C352.433 126.202 352.93 125.697 353.549 125.697H384.262C384.873 125.697 385.378 126.194 385.378 126.812C385.378 127.431 384.881 127.928 384.262 127.928Z" fill="#BFBCC0"/>
<path d="M426.462 98.119H395.749C395.138 98.119 394.633 97.6225 394.633 97.0038C394.633 96.3933 395.13 95.8887 395.749 95.8887H426.462C427.073 95.8887 427.578 96.3852 427.578 97.0038C427.578 97.6225 427.073 98.119 426.462 98.119Z" fill="#BFBCC0"/>
<path d="M416.922 93.691H395.358C394.958 93.691 394.633 93.3654 394.633 92.9665V92.1932C394.633 91.7943 394.958 91.4688 395.358 91.4688H416.922C417.321 91.4688 417.647 91.7943 417.647 92.1932V92.9665C417.647 93.3654 417.321 93.691 416.922 93.691Z" fill="#BFBCC0"/>
<path d="M341.028 110.435H310.315C309.704 110.435 309.199 109.938 309.199 109.32C309.199 108.709 309.696 108.205 310.315 108.205H341.028C341.639 108.205 342.144 108.701 342.144 109.32C342.144 109.938 341.647 110.435 341.028 110.435Z" fill="#BFBCC0"/>
<path d="M298.127 105.348H267.414C266.803 105.348 266.298 104.851 266.298 104.232C266.298 103.622 266.795 103.117 267.414 103.117H298.127C298.738 103.117 299.243 103.614 299.243 104.232C299.235 104.851 298.738 105.348 298.127 105.348Z" fill="#BFBCC0"/>
<path d="M283.618 100.35H266.934C266.575 100.35 266.29 100.065 266.29 99.7064V98.7622C266.29 98.404 266.575 98.1191 266.934 98.1191H283.618C283.976 98.1191 284.262 98.404 284.262 98.7622V99.7064C284.262 100.056 283.976 100.35 283.618 100.35Z" fill="#BFBCC0"/>
<path d="M375.072 123.475H353.166C352.759 123.475 352.433 123.15 352.433 122.743V121.986C352.433 121.579 352.759 121.253 353.166 121.253H375.072C375.48 121.253 375.806 121.579 375.806 121.986V122.743C375.806 123.15 375.48 123.475 375.072 123.475Z" fill="#BFBCC0"/>
<path d="M228.042 124.249L257.866 119.698C260.367 136.052 248.962 151.558 232.595 154.057C216.229 156.556 200.709 145.16 198.208 128.807C195.707 112.454 207.113 96.947 223.479 94.448C226.086 94.0491 228.734 93.9922 231.349 94.2852L228.042 124.249Z" fill="#F19101"/>
<path d="M237.72 94.3828L234.094 117.484L256.791 113.227C256.791 113.227 253.459 100.276 237.72 94.3828Z" fill="#6348ED"/>
<path d="M479.749 179.128C479.749 179.128 464.409 193.862 457.786 203.068C451.676 211.566 444.238 204.517 444.238 204.517L432.539 220.903C432.539 220.903 441.378 230.313 455.122 234.399C468.865 238.477 471.146 234.008 471.146 234.008L479.749 179.128Z" fill="#F19101" stroke="#010001" stroke-miterlimit="10" stroke-linecap="round"/>
<path d="M449.354 219.796C449.842 220.829 450.331 221.863 450.82 222.905C450.91 223.101 451.162 223.271 451.366 223.328C451.586 223.385 451.879 223.361 452.075 223.239C452.523 222.954 452.62 222.449 452.4 221.985C451.912 220.952 451.423 219.918 450.934 218.876C450.844 218.681 450.592 218.51 450.388 218.453C450.168 218.396 449.875 218.42 449.679 218.542C449.231 218.835 449.134 219.332 449.354 219.796Z" fill="white"/>
<path d="M460.262 223.793C460.84 222.759 461.468 221.749 462.144 220.773C462.413 220.374 462.233 219.739 461.818 219.519C461.354 219.275 460.857 219.421 460.563 219.845C459.895 220.821 459.268 221.831 458.682 222.865C458.445 223.28 458.567 223.882 459.007 224.118C459.447 224.346 460.018 224.24 460.262 223.793Z" fill="white"/>
<path d="M460.238 209.051C460.148 210.223 460.107 211.404 460.107 212.584C460.107 213.064 460.531 213.52 461.028 213.504C461.525 213.479 461.948 213.105 461.948 212.584C461.94 211.404 461.989 210.223 462.079 209.051C462.119 208.571 461.631 208.115 461.158 208.131C460.62 208.164 460.27 208.538 460.238 209.051Z" fill="white"/>
<path d="M466.38 194.578C466.633 196.629 466.975 198.673 467.423 200.691C467.529 201.163 468.099 201.481 468.547 201.334C469.036 201.172 469.297 200.708 469.191 200.211C468.775 198.355 468.441 196.426 468.213 194.586C468.156 194.114 467.83 193.65 467.293 193.666C466.853 193.675 466.323 194.065 466.38 194.578Z" fill="white"/>
<path d="M430.559 201.326C430.559 201.326 426.478 199.112 425.712 200.569C424.946 202.026 427.895 203.28 429.15 203.744C430.405 204.208 433.802 203.28 430.559 201.326Z" fill="white" stroke="#010001" stroke-width="0.75" stroke-miterlimit="10"/>
<path d="M431.447 217.305L425.036 192.161C424.335 189.401 426.364 186.699 429.215 186.601L447.122 185.991C449.166 185.917 450.991 187.244 451.561 189.206L459.048 214.912C459.879 217.761 457.745 220.618 454.771 220.618L435.798 220.667C433.745 220.667 431.952 219.283 431.447 217.305Z" fill="#010001"/>
<path d="M433.786 213.219C433.786 213.219 433.598 213.854 432.898 213.894C432.197 213.935 430.307 213.414 429.598 212.706C428.898 212.006 429.061 211.33 429.329 211.306C429.329 211.306 428.458 211.021 428.327 210.183C428.197 209.344 428.865 208.994 429.5 208.929C429.5 208.929 428.661 209.279 427.847 208.571C427.032 207.863 427.431 206.805 428.784 206.634C428.784 206.634 427.008 207.016 426.828 205.722C426.649 204.428 427.7 204.004 428.474 203.874C429.24 203.736 431.097 203.63 431.61 203.956C432.124 204.281 432.197 204.729 431.944 205.12C431.692 205.51 430.942 206.129 430.942 206.129C430.942 206.129 432.466 206.324 432.841 206.625C433.215 206.927 433.468 207.089 433.289 207.578C433.109 208.058 431.887 208.612 431.887 208.612C431.887 208.612 431.667 208.994 432.205 209.059C432.743 209.124 434.03 209.702 434.12 210.223C434.209 210.752 433.949 211.2 433.712 211.347C433.476 211.493 433.183 211.509 433.476 211.892C433.769 212.275 434.087 212.779 433.786 213.219Z" fill="white"/>
<path d="M429.492 211.208C429.492 211.208 428.539 211.77 429.598 212.706C430.649 213.642 432.555 213.951 433.313 213.781C434.071 213.61 434.005 212.079 433.24 211.558C432.466 211.037 429.867 210.866 429.492 211.208Z" stroke="#010001" stroke-width="0.75" stroke-miterlimit="10" stroke-linecap="round"/>
<path d="M429.223 211.266C429.223 211.266 428.335 211.005 428.311 210.085C428.286 209.165 429.207 208.645 431.113 208.824C433.028 209.003 433.94 209.54 434.013 210.395C434.087 211.249 433.5 211.705 433.223 211.559" stroke="#010001" stroke-width="0.75" stroke-miterlimit="10" stroke-linecap="round"/>
<path d="M428.718 209.092C428.718 209.092 427.39 208.88 427.423 207.716C427.456 206.552 429.647 206.235 430.828 206.129C432.01 206.023 433.5 206.927 433.15 207.79C432.8 208.644 431.733 208.693 431.35 208.823" stroke="#010001" stroke-width="0.75" stroke-miterlimit="10" stroke-linecap="round"/>
<path d="M428.132 206.764C428.132 206.764 426.836 206.618 426.796 205.364C426.747 204.119 429.117 203.557 430.942 203.646C432.759 203.736 431.618 205.926 430.934 206.121" stroke="#010001" stroke-width="0.75" stroke-miterlimit="10" stroke-linecap="round"/>
<path d="M491.651 255.294L499.179 255.718C499.179 255.718 501.297 248.636 498.934 240.089C496.58 231.542 468.914 232.014 468.914 232.014C468.914 232.014 468.319 248.416 468.531 248.546C468.743 248.677 491.651 255.294 491.651 255.294Z" fill="#6348ED"/>
<path d="M504.246 236.54L504.466 242.962L466.307 235.246L463.822 234.578C463.822 234.578 465.264 205.608 469.753 193.675C474.242 181.741 480.466 176.524 485.207 175.816C489.949 175.107 501.183 186.821 501.183 186.821L504.824 224.769L504.246 236.54Z" fill="#F19101" stroke="#010001" stroke-miterlimit="10" stroke-linecap="round"/>
<path d="M474.046 192.934C474.861 191.68 475.676 190.419 476.49 189.165C476.751 188.766 476.588 188.14 476.164 187.912C475.708 187.667 475.187 187.814 474.91 188.237C474.095 189.491 473.281 190.753 472.466 192.006C472.205 192.405 472.368 193.032 472.792 193.26C473.248 193.504 473.761 193.365 474.046 192.934Z" fill="white"/>
<path d="M477.338 197.297C477.191 198.543 477.044 199.78 476.898 201.025C476.873 201.245 477.02 201.522 477.167 201.676C477.329 201.839 477.59 201.953 477.818 201.945C478.055 201.937 478.299 201.856 478.47 201.676C478.641 201.489 478.706 201.286 478.739 201.025C478.885 199.78 479.032 198.543 479.179 197.297C479.203 197.077 479.057 196.801 478.91 196.646C478.747 196.483 478.486 196.369 478.258 196.377C478.022 196.386 477.778 196.467 477.606 196.646C477.427 196.841 477.362 197.045 477.338 197.297Z" fill="white"/>
<path d="M484.376 188.449C484.499 189.564 484.629 190.679 484.751 191.786C484.776 192.039 484.833 192.25 485.02 192.438C485.183 192.6 485.444 192.714 485.672 192.706C486.12 192.69 486.649 192.299 486.592 191.786C486.47 190.671 486.34 189.556 486.217 188.449C486.193 188.197 486.136 187.985 485.949 187.798C485.786 187.635 485.525 187.521 485.297 187.529C484.849 187.554 484.319 187.936 484.376 188.449Z" fill="white"/>
<path d="M490.91 203.948C491.537 202.588 492.205 201.245 492.914 199.927C493.142 199.503 493.036 198.909 492.588 198.673C492.165 198.445 491.578 198.551 491.334 198.999C490.617 200.317 489.949 201.66 489.329 203.02C489.134 203.451 489.191 204.029 489.655 204.273C490.055 204.493 490.698 204.412 490.91 203.948Z" fill="white"/>
<path d="M467.757 222.328C468.515 221.546 469.313 220.798 470.136 220.081C470.307 219.935 470.405 219.65 470.405 219.43C470.405 219.202 470.307 218.933 470.136 218.779C469.965 218.616 469.729 218.502 469.484 218.51C469.232 218.518 469.028 218.616 468.832 218.779C468.001 219.487 467.211 220.244 466.454 221.025C466.12 221.367 466.087 221.986 466.454 222.32C466.82 222.662 467.399 222.702 467.757 222.328Z" fill="white"/>
<path d="M470.323 227.22C470.714 228.327 471.105 229.434 471.496 230.541C471.659 230.989 472.132 231.339 472.621 231.184C473.069 231.038 473.435 230.541 473.264 230.061C472.873 228.954 472.482 227.847 472.091 226.74C471.928 226.292 471.456 225.942 470.967 226.097C470.519 226.243 470.152 226.74 470.323 227.22Z" fill="white"/>
<path d="M482.934 235.873C484.05 234.546 485.232 233.284 486.478 232.079C486.82 231.746 486.837 231.119 486.478 230.785C486.103 230.443 485.549 230.427 485.183 230.785C483.936 231.99 482.755 233.251 481.639 234.578C481.329 234.945 481.256 235.523 481.639 235.873C481.973 236.182 482.6 236.263 482.934 235.873Z" fill="white"/>
<path d="M491.407 235.23C491.447 236.255 491.521 237.281 491.627 238.299C491.651 238.551 491.708 238.763 491.895 238.95C492.058 239.113 492.319 239.227 492.547 239.218C493.003 239.202 493.517 238.811 493.468 238.299C493.362 237.281 493.289 236.255 493.248 235.23C493.232 234.75 492.841 234.294 492.327 234.31C491.847 234.334 491.39 234.717 491.407 235.23Z" fill="white"/>
<path d="M465.452 210.525L473.069 217.452L475.529 219.43L481.859 211.119C481.859 211.119 477.158 209.581 474.869 206.829C472.572 204.078 471.342 200.114 470.893 199.642C470.445 199.169 468.36 198.315 466.616 197.794C464.865 197.273 460.661 195.669 459.227 195.995C457.794 196.312 458.437 197.598 458.853 197.981C459.26 198.355 462.397 199.52 462.397 199.52C462.397 199.52 463.504 200.081 462.893 200.211C462.274 200.342 461.777 200.643 461.777 200.643C461.777 200.643 461.394 201.555 461.093 201.766C460.8 201.978 460.523 202.32 460.539 202.759C460.555 203.199 460.506 203.524 460.067 203.923C459.627 204.322 459.529 205.698 459.529 205.698C459.529 205.698 459.154 206.227 459.309 207.244C459.464 208.262 460.547 210.012 461.72 210.403C462.902 210.793 463.773 210.622 463.773 210.622L464.555 209.621L465.452 210.525Z" fill="white"/>
<path d="M464.124 200.008C464.124 200.008 458.421 198.624 458.372 196.947C458.299 194.79 464.295 197.224 467.928 198.144C471.57 199.056 471.17 200.488 473.549 204.949C475.936 209.41 481.867 211.111 481.867 211.111L475.537 219.422C475.537 219.422 467.586 213.162 466.038 211.209C464.482 209.255 462.348 207.562 461.386 207.806" stroke="#010001" stroke-width="0.75" stroke-miterlimit="10" stroke-linecap="round"/>
<path d="M464.237 209.45C464.237 209.45 464.246 211.111 462.893 210.631C461.508 210.134 459.219 209.157 459.154 206.862C459.081 204.192 462.649 205.681 462.649 205.681" stroke="#010001" stroke-width="0.75" stroke-miterlimit="10" stroke-linecap="round"/>
<path d="M464.026 203.207C464.026 203.207 459.35 202.775 459.643 205.551" stroke="#010001" stroke-width="0.75" stroke-miterlimit="10" stroke-linecap="round"/>
<path d="M465.15 201.807C465.15 201.807 461.867 201.05 461.166 201.668C460.466 202.287 460.645 203.459 460.645 203.459" stroke="#010001" stroke-width="0.75" stroke-miterlimit="10" stroke-linecap="round"/>
<path d="M461.574 201.449C461.574 201.449 461.843 199.064 466.959 200.48" stroke="#010001" stroke-width="0.75" stroke-miterlimit="10" stroke-linecap="round"/>
<path d="M502.112 213.92C501.379 209.858 496.996 199.634 496.996 199.634L488.54 176.476C488.54 176.476 505.028 179.089 518.096 202.296C531.155 225.503 519.855 239.471 509.525 240.44C490.568 242.214 472.588 220.627 472.588 220.627L482.096 206.805L506.039 215.328" fill="#F19101"/>
<path d="M472.588 220.618C472.588 220.618 474.625 223.06 478.038 226.227L488.344 209.019L482.095 206.796L472.588 220.618Z" fill="#F19101" stroke="#010001" stroke-miterlimit="10"/>
<path d="M473.899 218.713L479.879 223.15" stroke="#010001" stroke-miterlimit="10"/>
<path d="M475.561 216.239L481.842 219.869" stroke="#010001" stroke-miterlimit="10"/>
<path d="M477.394 213.626L483.667 216.833" stroke="#010001" stroke-miterlimit="10"/>
<path d="M479.146 211.078L485.386 213.952" stroke="#010001" stroke-miterlimit="10"/>
<path d="M480.767 208.717L487.032 211.208" stroke="#010001" stroke-miterlimit="10"/>
<path d="M488.531 176.467C488.531 176.467 505.02 179.08 518.087 202.287C531.146 225.494 519.847 239.462 509.517 240.431C490.56 242.205 472.58 220.618 472.58 220.618L482.087 206.796L506.03 215.319" stroke="#010001" stroke-miterlimit="10" stroke-linecap="round"/>
<path d="M496.987 199.625C496.987 199.625 501.37 209.849 502.103 213.911" stroke="#010001" stroke-miterlimit="10" stroke-linecap="round"/>
<path d="M483.61 223.98C484.604 225.421 485.623 226.845 486.665 228.253C486.812 228.449 486.967 228.603 487.211 228.677C487.431 228.734 487.724 228.709 487.92 228.587C488.303 228.343 488.555 227.749 488.246 227.334C487.203 225.925 486.185 224.501 485.191 223.06C484.922 222.669 484.376 222.45 483.936 222.734C483.545 222.979 483.317 223.557 483.61 223.98Z" fill="white"/>
<path d="M489.052 217.598C489.9 217.639 490.755 217.687 491.602 217.728C492.083 217.753 492.539 217.289 492.523 216.808C492.498 216.287 492.124 215.921 491.602 215.888C490.755 215.848 489.9 215.799 489.052 215.758C488.572 215.734 488.115 216.198 488.132 216.678C488.164 217.207 488.539 217.573 489.052 217.598Z" fill="white"/>
<path d="M493.191 224.476C494.266 225.014 495.366 225.494 496.49 225.925C496.702 226.007 497.012 225.942 497.199 225.836C497.386 225.722 497.574 225.51 497.623 225.29C497.68 225.054 497.663 224.794 497.533 224.582C497.394 224.371 497.223 224.248 496.987 224.159C496.637 224.029 496.295 223.882 495.944 223.744C496.018 223.776 496.091 223.809 496.164 223.833C495.472 223.54 494.796 223.231 494.128 222.897C493.696 222.686 493.117 222.767 492.873 223.223C492.645 223.638 492.735 224.248 493.191 224.476Z" fill="white"/>
<path d="M495.953 233.723C497.061 234.537 498.168 235.343 499.276 236.157C499.456 236.287 499.773 236.304 499.985 236.247C500.197 236.19 500.425 236.027 500.531 235.823C500.784 235.343 500.612 234.871 500.205 234.57C499.097 233.756 497.989 232.95 496.881 232.136C496.702 232.006 496.384 231.989 496.173 232.046C495.961 232.103 495.733 232.266 495.627 232.47C495.366 232.95 495.537 233.422 495.953 233.723Z" fill="white"/>
<path d="M503.659 220.366C504.832 220.292 506.014 220.219 507.187 220.154C507.667 220.121 508.124 219.755 508.107 219.234C508.083 218.762 507.7 218.29 507.187 218.314C506.014 218.388 504.832 218.461 503.659 218.526C503.179 218.559 502.722 218.925 502.739 219.446C502.763 219.918 503.146 220.398 503.659 220.366Z" fill="white"/>
<path d="M505.737 228.831C506.885 229.206 508.034 229.572 509.175 229.946C509.631 230.093 510.193 229.775 510.299 229.303C510.413 228.799 510.144 228.335 509.655 228.18C508.507 227.806 507.358 227.439 506.217 227.065C505.761 226.918 505.199 227.236 505.093 227.708C504.987 228.204 505.248 228.668 505.737 228.831Z" fill="white"/>
<path d="M510.943 237.117C511.863 236.71 512.776 236.303 513.696 235.896C513.892 235.807 514.063 235.546 514.12 235.351C514.177 235.131 514.152 234.838 514.03 234.643C513.908 234.448 513.712 234.277 513.484 234.22C513.232 234.163 513.012 234.203 512.776 234.309C511.855 234.716 510.943 235.123 510.022 235.53C509.826 235.62 509.655 235.88 509.598 236.076C509.541 236.295 509.566 236.588 509.688 236.784C509.81 236.979 510.006 237.15 510.234 237.207C510.494 237.264 510.706 237.223 510.943 237.117Z" fill="white"/>
<path d="M519.032 228.367C519.619 227.578 520.132 226.739 520.564 225.852C520.67 225.632 520.727 225.396 520.653 225.144C520.596 224.932 520.433 224.704 520.23 224.599C519.814 224.379 519.203 224.468 518.975 224.924C518.543 225.803 518.03 226.65 517.444 227.439C517.313 227.619 517.297 227.944 517.354 228.148C517.411 228.359 517.574 228.587 517.778 228.693C517.989 228.807 518.25 228.864 518.486 228.783C518.723 228.709 518.886 228.571 519.032 228.367Z" fill="white"/>
<path d="M512.987 222.865C513.777 222.254 514.568 221.644 515.358 221.041C515.553 220.887 515.708 220.748 515.782 220.496C515.839 220.276 515.814 219.983 515.692 219.788C515.57 219.592 515.374 219.421 515.146 219.364C514.926 219.315 514.633 219.307 514.437 219.454C513.647 220.064 512.857 220.675 512.067 221.277C511.871 221.432 511.716 221.57 511.643 221.823C511.586 222.042 511.61 222.335 511.733 222.531C511.855 222.726 512.05 222.897 512.278 222.954C512.507 223.011 512.8 223.011 512.987 222.865Z" fill="white"/>
<path d="M509.419 210.663C509.558 211.273 509.68 211.884 509.786 212.502C509.81 212.657 509.835 212.82 509.859 212.974C509.867 213.048 509.883 213.121 509.892 213.194C509.924 213.389 509.867 213.023 509.9 213.243C509.94 213.56 509.973 213.878 510.006 214.195C510.03 214.448 510.095 214.659 510.274 214.847C510.437 215.009 510.698 215.123 510.926 215.115C511.382 215.091 511.896 214.708 511.847 214.195C511.716 212.844 511.496 211.501 511.195 210.174C511.089 209.71 510.527 209.385 510.071 209.531C509.574 209.694 509.305 210.166 509.419 210.663Z" fill="white"/>
<path d="M518.152 212.494C518.543 213.609 518.877 214.741 519.146 215.888C519.252 216.352 519.814 216.678 520.27 216.531C520.759 216.377 521.028 215.905 520.914 215.408C520.645 214.26 520.311 213.129 519.92 212.014C519.757 211.566 519.285 211.216 518.796 211.371C518.348 211.509 517.981 212.006 518.152 212.494Z" fill="white"/>
<path d="M504.165 207.651C504.425 206.153 504.694 204.655 504.955 203.149C505.036 202.677 504.833 202.14 504.311 202.026C503.863 201.928 503.268 202.164 503.187 202.669C502.926 204.167 502.657 205.665 502.397 207.171C502.315 207.643 502.519 208.18 503.04 208.294C503.48 208.392 504.075 208.155 504.165 207.651Z" fill="white"/>
<path d="M511 200.471C511.611 201.912 512.222 203.353 512.833 204.794C512.914 204.989 513.183 205.16 513.378 205.217C513.598 205.274 513.892 205.25 514.087 205.128C514.552 204.835 514.617 204.346 514.413 203.874C513.802 202.433 513.191 200.992 512.58 199.552C512.499 199.356 512.23 199.185 512.034 199.128C511.814 199.071 511.521 199.096 511.325 199.218C510.861 199.511 510.796 199.991 511 200.471Z" fill="white"/>
<path d="M504.523 194.953C505.101 196.125 505.688 197.305 506.266 198.477C506.478 198.909 507.122 199.063 507.521 198.803C507.961 198.518 508.075 198.013 507.847 197.549C507.268 196.377 506.682 195.197 506.103 194.025C505.891 193.593 505.248 193.439 504.849 193.699C504.409 193.984 504.295 194.497 504.523 194.953Z" fill="white"/>
<path d="M499.008 194.448C499.179 193.438 499.35 192.429 499.521 191.42C499.561 191.167 499.562 190.939 499.431 190.712C499.317 190.524 499.105 190.337 498.885 190.288C498.445 190.191 497.843 190.427 497.761 190.931C497.59 191.941 497.419 192.95 497.248 193.959C497.207 194.212 497.207 194.44 497.337 194.668C497.452 194.855 497.663 195.042 497.883 195.091C498.323 195.189 498.926 194.952 499.008 194.448Z" fill="white"/>
<path d="M494.421 176.581C493.329 174.912 491.635 173.984 490.152 173.292C489.672 173.032 489.134 172.861 488.547 172.771C487.969 172.665 487.399 172.657 486.861 172.747C485.232 172.926 483.456 173.634 481.892 174.863C478.617 177.435 477.492 181.269 479.366 183.434C480.881 185.176 482.657 184.908 485.476 183.54C488.816 187.228 491.822 186.983 493.81 185.819C496.279 184.387 496.686 180.073 494.421 176.581Z" fill="white" stroke="#010001" stroke-miterlimit="10"/>
<path d="M494.054 157.143C493.061 157.175 492.156 157.525 491.431 158.087L491.333 155.352C491.187 151.021 487.953 147.586 484.14 147.716L478.413 147.912C474.608 148.042 471.619 151.689 471.765 156.019L472.067 164.884C472.213 169.214 475.447 172.649 479.26 172.519L482.568 172.405L482.731 177.183C482.796 179.145 484.458 180.692 486.413 180.618L488.686 180.537C490.649 180.472 492.197 178.811 492.124 176.858L491.936 171.461L491.928 171.16L491.741 165.763C491.741 165.657 491.724 165.551 491.708 165.445C492.466 165.934 493.37 166.202 494.348 166.17C496.865 166.08 498.837 163.988 498.747 161.497C498.682 159.007 496.572 157.053 494.054 157.143Z" fill="white" stroke="#010001" stroke-miterlimit="10"/>
<path d="M491.765 162.336C491.765 162.336 491.456 159.275 494.625 159.511" stroke="#010001" stroke-miterlimit="10" stroke-linecap="round"/>
<path d="M483.334 158.526C483.358 159.234 482.804 159.837 482.087 159.861C481.378 159.885 480.775 159.332 480.751 158.616C480.727 157.907 481.281 157.305 481.998 157.281C482.706 157.256 483.309 157.818 483.334 158.526Z" fill="#010001"/>
<path d="M474.877 158.624C474.902 159.234 474.421 159.739 473.81 159.763C473.199 159.788 472.694 159.308 472.67 158.697C472.645 158.087 473.126 157.582 473.737 157.558C474.348 157.541 474.861 158.022 474.877 158.624Z" fill="#010001"/>
<path d="M487.977 163.117C488.034 164.883 486.649 166.373 484.882 166.43C483.114 166.487 481.623 165.103 481.566 163.337C481.509 161.57 482.894 160.081 484.662 160.024C486.429 159.959 487.92 161.342 487.977 163.117Z" fill="#ED80A5"/>
<path d="M472.922 161.188C472.727 161.196 472.539 161.228 472.36 161.277L472.474 164.598C472.49 165.095 472.523 165.575 472.645 166.039C472.784 166.055 472.955 166.072 473.093 166.064C474.438 166.015 475.497 164.891 475.448 163.54C475.407 162.197 474.275 161.139 472.922 161.188Z" fill="#ED80A5"/>
<path d="M484.042 156.133C483.35 155.799 482.633 155.53 481.884 155.343C481.721 155.303 481.55 155.392 481.509 155.555C481.468 155.71 481.558 155.889 481.721 155.929C482.413 156.1 483.089 156.344 483.733 156.654C483.88 156.727 484.067 156.695 484.148 156.548C484.23 156.41 484.197 156.198 484.042 156.133Z" fill="#010001"/>
<path d="M474.82 156.117C474.055 156.117 473.289 156.182 472.531 156.312C472.368 156.336 472.279 156.54 472.319 156.687C472.368 156.857 472.531 156.931 472.694 156.898C473.395 156.776 474.103 156.719 474.82 156.727C474.983 156.727 475.13 156.589 475.13 156.418C475.13 156.255 474.991 156.117 474.82 156.117Z" fill="#010001"/>
<path d="M477.289 157.362C476.939 158.543 476.417 159.666 475.741 160.7C475.627 160.879 475.749 161.082 475.92 161.147C476.507 161.375 477.118 161.522 477.745 161.603C477.908 161.628 478.055 161.448 478.055 161.294C478.055 161.115 477.916 161.009 477.745 160.985C477.175 160.911 476.613 160.765 476.083 160.553C476.14 160.7 476.205 160.854 476.262 161.001C476.963 159.926 477.501 158.746 477.867 157.517C477.998 157.151 477.403 156.988 477.289 157.362Z" fill="#010001"/>
<path d="M494.437 142.824C495.219 144.061 496.865 144.428 498.103 143.646C499.342 142.865 499.708 141.221 498.926 139.983C498.144 138.746 496.498 138.38 495.26 139.161C494.022 139.951 493.655 141.587 494.437 142.824Z" fill="#6348ED"/>
<path d="M500.116 136.043C500.116 136.043 496.067 131.119 497.492 124.224C498.91 117.33 506.926 112.828 512.417 114.236C517.908 115.645 520.458 115.93 522.991 110.5C525.525 105.063 531.586 98.2902 545.11 101.204C558.633 104.118 558.535 120.488 557.313 125.641C555.757 132.193 551.277 135.791 545.476 138.99C539.668 142.189 531.228 142.295 525.704 137.232C520.181 132.169 516.205 132.885 515.847 137.191C515.431 141.969 504.197 142.751 500.116 136.043Z" stroke="#010001" stroke-miterlimit="10"/>
<path d="M493.631 144.615C488.824 140.089 482.079 139.951 475.936 143.923C469.794 147.895 470.144 154.049 470.551 154.912C470.788 155.425 471.114 155.808 471.782 155.913C472.36 155.962 473.329 155.824 475.057 155.401C480.018 154.163 483.032 149.727 483.032 149.727C483.032 149.727 482.633 150.525 484.458 154.082C485.826 156.752 489.134 158.315 490.812 158.958C491.301 158.25 492.507 157.248 494.006 157.134C495.081 157.053 496.328 157.607 497.142 158.193C498.332 155.694 498.055 148.775 493.631 144.615Z" fill="#010001"/>
<path d="M475.496 165.486C475.545 166.438 476.148 167.276 477.061 167.586C477.957 167.895 478.991 167.586 479.578 166.845C479.92 166.414 480.091 165.893 480.083 165.347C480.075 164.957 479.464 164.957 479.472 165.347C479.488 166.259 478.788 167.065 477.859 167.097C476.938 167.13 476.156 166.405 476.107 165.486C476.091 165.095 475.48 165.095 475.496 165.486Z" fill="#010001"/>
<path d="M411.333 294.082L411.904 310.744L424.718 312.356L424.954 294.399L411.333 294.082Z" fill="white" stroke="#6040EF" stroke-miterlimit="10"/>
<path d="M413.329 294.13L414.315 311.143" stroke="#6040EF" stroke-miterlimit="10"/>
<path d="M416.286 294.204L417.272 311.216" stroke="#6040EF" stroke-miterlimit="10"/>
<path d="M419.064 293.959L419.57 311.306" stroke="#6040EF" stroke-miterlimit="10"/>
<path d="M421.614 294.146L422.136 311.631" stroke="#6040EF" stroke-miterlimit="10"/>
<path d="M387.985 332.364L428.995 331.534L427.594 307.317L408.384 308.994L407.977 318.477L387.985 332.364Z" fill="white" stroke="#0F110E" stroke-miterlimit="10"/>
<path d="M399.814 321.888L402.445 327.456" stroke="#101010" stroke-miterlimit="10" stroke-linecap="round"/>
<path d="M403.545 319.755L406.176 325.323" stroke="#101010" stroke-miterlimit="10" stroke-linecap="round"/>
<path d="M406.38 318.86C406.38 318.86 395.732 314.79 397.402 311.762C400.099 306.886 406.38 318.86 406.38 318.86Z" stroke="#101010" stroke-miterlimit="10" stroke-linecap="round"/>
<path d="M403.806 308.734L406.665 319.039" stroke="#101010" stroke-miterlimit="10" stroke-linecap="round"/>
<path d="M412.49 319.332C412.588 322.059 414.877 324.2 417.606 324.102C420.335 324.004 422.478 321.717 422.38 318.99C422.282 316.263 419.993 314.122 417.264 314.22C414.535 314.318 412.4 316.605 412.49 319.332Z" fill="#F19101"/>
<path d="M380.246 257.647L369.492 270.394L377.916 280.178L390.144 267.016L380.246 257.647Z" fill="white" stroke="#6040EF" stroke-miterlimit="10"/>
<path d="M381.696 259.022L371.015 272.299" stroke="#6040EF" stroke-miterlimit="10"/>
<path d="M383.838 261.065L373.158 274.342" stroke="#6040EF" stroke-miterlimit="10"/>
<path d="M386.062 262.743L374.804 275.946" stroke="#6040EF" stroke-miterlimit="10"/>
<path d="M387.83 264.59L376.482 277.907" stroke="#6040EF" stroke-miterlimit="10"/>
<path d="M337.231 270.41L368.221 297.272L383.431 278.363L368.05 266.731L361.386 273.503L337.231 270.41Z" fill="white" stroke="#0F110E" stroke-miterlimit="10"/>
<path d="M353.036 270.565L351.26 276.458" stroke="#101010" stroke-miterlimit="10" stroke-linecap="round"/>
<path d="M357.239 271.477L355.455 277.378" stroke="#101010" stroke-miterlimit="10" stroke-linecap="round"/>
<path d="M359.944 272.714C359.944 272.714 354.771 262.555 358.054 261.432C363.325 259.625 359.944 272.714 359.944 272.714Z" stroke="#101010" stroke-miterlimit="10" stroke-linecap="round"/>
<path d="M364.832 263.475L360.034 273.04" stroke="#101010" stroke-miterlimit="10" stroke-linecap="round"/>
<path d="M364.164 277.167C362.404 279.259 362.665 282.376 364.759 284.135C366.852 285.893 369.973 285.632 371.732 283.54C373.492 281.448 373.231 278.331 371.138 276.573C369.044 274.806 365.924 275.075 364.164 277.167Z" fill="#F19101"/>
<path d="M483.22 240.325L476.963 236.914C476.963 236.914 456.001 226.69 450.185 224.216C444.376 221.741 430.34 216.214 426.34 215.376C422.34 214.537 416.482 212.73 407.757 218.99C407.757 218.99 393.671 229.604 392.066 230.996C390.462 232.388 370.299 251.639 370.299 251.639L396.368 274.122L404.572 264.948L402.062 296.255L433.362 296.588L432.889 265.03C432.889 265.03 432.653 264.126 434.063 264.216C435.472 264.313 457.631 264.948 457.631 264.948C457.631 264.948 461.623 265.062 463.415 265.673C465.207 266.283 480.189 269.596 487.366 267.455C494.552 265.314 496.922 262.002 497.924 259.722C498.926 257.443 499.904 254.529 500.026 252.258C500.148 250.003 483.22 240.325 483.22 240.325Z" fill="#6348ED"/>
<path d="M481.306 239.136C481.306 239.136 432.377 213.495 418.804 214.301C405.232 215.107 370.307 251.64 370.307 251.64L396.377 274.122L404.621 264.509" stroke="#010001" stroke-miterlimit="10" stroke-linecap="round"/>
<path d="M412.327 239.698C412.327 239.698 452.539 262.962 463.944 265.828C475.032 268.62 505.053 274.603 499.464 242.043" stroke="#010001" stroke-miterlimit="10" stroke-linecap="round"/>
<path d="M417.395 242.588C417.395 242.588 407.105 243.182 406.038 250.427C404.971 257.663 402.079 296.271 402.079 296.271L433.378 296.605L432.784 256.939" stroke="#010001" stroke-miterlimit="10" stroke-linecap="round"/>
<path d="M432.881 264.265L460.898 264.851" stroke="#010001" stroke-miterlimit="10" stroke-linecap="round"/>
<path d="M503.252 264.843H447.855V373.154H503.252V264.843Z" fill="#958F99" stroke="#010001" stroke-miterlimit="10"/>
<path d="M432.303 332.03H376.906V373.495H432.303V332.03Z" fill="#BFBCC0" stroke="#010001" stroke-miterlimit="10"/>
<path d="M287.007 252.063H231.61V373.154H287.007V252.063Z" fill="#BFBCC0" stroke="#010001" stroke-miterlimit="10"/>
<path d="M361.264 302.637H305.867V373.154H361.264V302.637Z" fill="#958F99" stroke="#010001" stroke-miterlimit="10"/>
<path d="M217.76 282.018H162.363V373.154H217.76V282.018Z" fill="#958F99" stroke="#010001" stroke-miterlimit="10"/>
<path d="M205.492 171.095L197.866 163.557C197.866 163.557 205.394 156.068 206.909 154.465C208.416 152.869 210.486 151.567 212.148 153.211C213.809 154.856 215.292 160.895 213.72 162.621C212.139 164.347 205.492 171.095 205.492 171.095Z" fill="white"/>
<path d="M128.848 144.135C128.848 144.135 137.141 141.424 164.807 171.095L196.767 161.856L208.18 174.489C208.18 174.489 182.714 200.163 167.675 203.459C159.308 205.299 148.139 205.421 138.062 188.148C127.984 170.875 128.848 144.135 128.848 144.135Z" fill="#6348ED" stroke="#010001" stroke-miterlimit="10" stroke-linecap="round"/>
<path d="M202.282 180.114C205.581 176.744 208.18 174.489 208.18 174.489L196.767 161.856L189.736 164.282L202.282 180.114Z" fill="#6348ED" stroke="#010001" stroke-miterlimit="10" stroke-linecap="round"/>
<path d="M158.616 176.101C158.616 176.101 162.754 171.689 167.683 170.264" stroke="#010001" stroke-miterlimit="10" stroke-linecap="round"/>
<path d="M143.561 332.91L142.632 350.826L131.251 352.739L131.332 333.935L143.561 332.91Z" fill="white" stroke="#010001" stroke-miterlimit="10"/>
<path d="M169.223 373.276L125.589 373.072L126.681 347.293L147.145 348.758L147.732 358.835L169.223 373.276Z" fill="#6348ED"/>
<path d="M156.473 362.335L153.76 368.294" stroke="#010001" stroke-miterlimit="10" stroke-linecap="round"/>
<path d="M152.465 360.122L149.752 366.088" stroke="#010001" stroke-miterlimit="10" stroke-linecap="round"/>
<path d="M149.435 359.218C149.435 359.218 160.693 354.709 158.86 351.518C155.911 346.381 149.435 359.218 149.435 359.218Z" stroke="#010001" stroke-miterlimit="10" stroke-linecap="round"/>
<path d="M152.001 348.4L149.133 359.413" stroke="#010001" stroke-miterlimit="10" stroke-linecap="round"/>
<path d="M134.127 373.113C134.77 371.925 135.121 370.549 135.055 369.1C134.868 364.827 131.243 361.497 126.958 361.676C126.656 361.693 126.355 361.725 126.062 361.774L126.037 362.311C126.347 362.254 126.656 362.214 126.982 362.205C130.974 362.034 134.363 365.136 134.534 369.124C134.599 370.573 134.224 371.941 133.532 373.113H134.127Z" fill="white"/>
<path d="M169.223 373.276L125.589 373.072L126.681 347.293" stroke="#010001" stroke-miterlimit="10" stroke-linecap="round"/>
<path d="M120.897 337.273L149.133 336.573L154.632 217.191L114.827 217.118L120.897 337.273Z" fill="#010001"/>
<path d="M114.827 217.118L120.897 337.273" stroke="white" stroke-miterlimit="10" stroke-linecap="round"/>
<path d="M120.326 325.95H149.532" stroke="white" stroke-miterlimit="10" stroke-linecap="round"/>
<path d="M80.1552 331.746L76.9128 349.385L87.5442 353.878L91.8131 335.563L80.1552 331.746Z" fill="white" stroke="#010001" stroke-miterlimit="10"/>
<path d="M47.4055 373.129L91.0391 372.918L92.6603 347.464L71.6826 348.449L68.8964 358.689L47.4055 373.129Z" fill="#6348ED"/>
<path d="M60.1633 362.181L62.868 368.148" stroke="#010001" stroke-miterlimit="10" stroke-linecap="round"/>
<path d="M64.1633 359.975L66.8762 365.942" stroke="#010001" stroke-miterlimit="10" stroke-linecap="round"/>
<path d="M67.1939 359.063C67.1939 359.063 55.9352 354.554 57.7682 351.363C60.7173 346.227 67.1939 359.063 67.1939 359.063Z" stroke="#010001" stroke-miterlimit="10" stroke-linecap="round"/>
<path d="M64.6277 348.253L67.4953 359.267" stroke="#010001" stroke-miterlimit="10" stroke-linecap="round"/>
<path d="M82.5014 372.958C81.8578 371.77 81.5075 370.394 81.5727 368.945C81.76 364.672 85.3853 361.342 89.6705 361.522C89.9719 361.538 91.3324 361.676 91.6257 361.725L91.5116 362.279C91.202 362.222 89.9719 362.059 89.646 362.042C85.6542 361.872 82.2651 364.973 82.0941 368.961C82.0289 370.41 82.4036 371.778 83.0961 372.95L82.5014 372.958Z" fill="white"/>
<path d="M47.4055 373.129L91.0391 372.918L92.4729 347.342" stroke="#010001" stroke-miterlimit="10" stroke-linecap="round"/>
<path d="M94.5178 219.283L73.0676 334.025L102.029 340.301L133.988 221.098L94.5178 219.283Z" fill="#010001"/>
<path d="M102.029 340.3L131.129 231.762H139.764" stroke="white" stroke-miterlimit="10" stroke-linecap="round"/>
<path d="M90.4688 240.952C90.4688 240.952 99.5523 240.936 104.937 230.476" stroke="white" stroke-miterlimit="10" stroke-linecap="round"/>
<path d="M74.7783 324.851L104.506 331.078" stroke="white" stroke-miterlimit="10" stroke-linecap="round"/>
<path d="M151.422 176.402L156.049 224.086H92.2122C92.2122 224.086 92.147 188.547 93.9719 173.032C95.7967 157.517 111.169 145.885 119.341 146.195C127.512 146.512 134.493 148.189 134.493 148.189L151.422 176.402Z" fill="#6348ED"/>
<path d="M149.492 173.187L156.058 224.095H92.221C92.221 224.095 92.1558 188.556 93.9807 173.041C95.8055 157.526 111.178 145.894 119.349 146.203C127.52 146.521 134.502 148.198 134.502 148.198" stroke="#010001" stroke-miterlimit="10" stroke-linecap="round"/>
<path d="M92.2122 224.086H156.05L154.754 214.009H92.2693C92.2041 220.008 92.2122 224.086 92.2122 224.086Z" fill="#6348ED" stroke="#010001" stroke-miterlimit="10" stroke-linecap="round"/>
<path d="M297.597 145.443C317.837 125.219 317.837 92.4301 297.597 72.2064C277.356 51.9826 244.54 51.9826 224.3 72.2064C204.06 92.4301 204.06 125.219 224.3 145.443C244.54 165.667 277.356 165.667 297.597 145.443Z" fill="white" stroke="#010001" stroke-miterlimit="10"/>
<path d="M260.856 194.302L278.144 169.32C281.663 164.241 288.661 163.02 293.688 166.609L296.115 168.343C302.144 172.657 310.633 169.939 313.028 162.922L321.419 138.388C324.832 128.408 338.959 128.408 342.372 138.388L346.437 150.264C349.696 159.788 362.95 160.366 367.032 151.168L370.551 143.223C374.063 135.303 384.914 134.31 389.81 141.465C394.951 148.986 406.478 147.415 409.427 138.803L413.354 127.326C416.963 116.785 432.148 117.582 434.625 128.449L449.647 194.31C449.647 194.302 261.378 193.773 260.856 194.302Z" fill="#F19101"/>
<path d="M437.908 170.647C434.616 164.127 425.549 162.922 421.02 168.644C420.865 168.84 420.718 169.043 420.572 169.255C420.572 169.255 415.643 178.266 412.995 180.325C406.502 185.388 398.453 186.504 389.736 174.863L384.286 168.091C380.661 163.589 374.144 162.735 369.476 166.145L363.17 170.753C360.205 172.918 356.156 177.118 353.044 175.417C349.59 173.536 340.351 166.145 340.351 166.145C335.683 162.735 329.166 163.598 325.541 168.091L320.091 174.863C314.828 181.408 304.433 179.707 301.524 171.835L294.795 153.642C291.268 144.102 277.712 144.273 274.42 153.895L260.905 193.414L259.862 194.57C259.862 194.57 260.09 194.57 260.514 194.57L260.384 194.961C260.384 194.188 449.989 194.57 449.989 194.57L437.908 170.647Z" fill="#6348ED"/>
<path d="M223.895 194.928H463.88" stroke="#010001" stroke-miterlimit="10" stroke-linecap="round"/>
<path d="M283.423 99.0801V100.635" stroke="#010001" stroke-width="0.4763" stroke-miterlimit="10"/>
<path d="M283.423 103.639V192.137" stroke="#010001" stroke-width="0.4763" stroke-miterlimit="10" stroke-dasharray="3.69 3.69"/>
<path d="M283.423 193.634V195.189" stroke="#010001" stroke-width="0.4763" stroke-miterlimit="10"/>
<path d="M330.755 104.859V197.33" stroke="#010001" stroke-width="0.4763" stroke-miterlimit="10" stroke-dasharray="3.81 3.81"/>
<path d="M424.678 91.2656V196.052" stroke="#010001" stroke-width="0.4763" stroke-miterlimit="10" stroke-dasharray="3.81 3.81"/>
<path d="M378.266 124.208V195.189" stroke="#010001" stroke-width="0.4763" stroke-miterlimit="10" stroke-dasharray="3.81 3.81"/>
<path d="M411.097 121.457H377.476C376.8 121.457 376.254 120.911 376.254 120.236C376.254 119.56 376.8 119.015 377.476 119.015H411.097C411.773 119.015 412.319 119.56 412.319 120.236C412.311 120.911 411.765 121.457 411.097 121.457Z" fill="#BFBCC0"/>
<path d="M457.289 88.8316H423.668C422.991 88.8316 422.446 88.2863 422.446 87.6106C422.446 86.935 422.991 86.3896 423.668 86.3896H457.289C457.965 86.3896 458.511 86.935 458.511 87.6106C458.503 88.2863 457.965 88.8316 457.289 88.8316Z" fill="#BFBCC0"/>
<path d="M446.918 83.9802H423.179C422.779 83.9802 422.454 83.6546 422.454 83.2558V82.2708C422.454 81.872 422.779 81.5464 423.179 81.5464H446.918C447.317 81.5464 447.643 81.872 447.643 82.2708V83.2558C447.643 83.6546 447.317 83.9802 446.918 83.9802Z" fill="#BFBCC0"/>
<path d="M363.773 102.312H330.152C329.476 102.312 328.93 101.766 328.93 101.091C328.93 100.415 329.476 99.8696 330.152 99.8696H363.773C364.449 99.8696 364.995 100.415 364.995 101.091C364.987 101.766 364.441 102.312 363.773 102.312Z" fill="#BFBCC0"/>
<path d="M316.799 96.7438H283.178C282.502 96.7438 281.956 96.1984 281.956 95.5228C281.956 94.8471 282.502 94.3018 283.178 94.3018H316.799C317.476 94.3018 318.021 94.8471 318.021 95.5228C318.021 96.1984 317.476 96.7438 316.799 96.7438Z" fill="#BFBCC0"/>
<path d="M300.987 91.2654H282.608C282.249 91.2654 281.964 90.9805 281.964 90.6223V89.4746C281.964 89.1164 282.249 88.8315 282.608 88.8315H300.987C301.345 88.8315 301.63 89.1164 301.63 89.4746V90.6223C301.63 90.9805 301.337 91.2654 300.987 91.2654Z" fill="#BFBCC0"/>
<path d="M401.109 116.589H376.995C376.588 116.589 376.262 116.264 376.262 115.857V114.888C376.262 114.481 376.588 114.155 376.995 114.155H401.109C401.517 114.155 401.842 114.481 401.842 114.888V115.857C401.834 116.264 401.508 116.589 401.109 116.589Z" fill="#BFBCC0"/>
<path d="M240.082 117.436L272.734 112.454C275.471 130.354 262.983 147.326 245.068 150.061C227.154 152.796 210.168 140.317 207.43 122.417C204.693 104.517 217.182 87.5455 235.097 84.8105C237.948 84.3709 240.848 84.314 243.716 84.6314L240.082 117.436Z" fill="#F19101"/>
<path d="M250.681 84.7373L246.714 110.028L271.561 105.364C271.561 105.364 267.903 91.1923 250.681 84.7373Z" fill="#6348ED"/>
<path d="M177.239 185.38L171.422 178.087L217.524 141.424L222.803 149.011L177.239 185.38Z" fill="#958F99" stroke="#0F110E" stroke-miterlimit="10"/>
<path d="M172.131 176.133L110.95 224.297C108.261 226.43 107.381 229.792 108.986 231.802L110.998 234.326C112.603 236.336 116.074 236.23 118.762 234.098L179.048 185.339L172.131 176.133Z" fill="#F19101" stroke="#0F110E" stroke-miterlimit="10"/>
<path d="M316.555 125.771C319.724 114.546 319.504 102.775 315.838 91.6968C308.457 69.4176 286.722 53.5202 263.243 53.219C251.439 53.0643 240.033 56.4018 230.217 62.9789C220.498 69.4909 212.897 79.21 208.856 90.1746C204.97 100.708 204.196 112.503 206.958 123.402C209.94 135.156 216.424 145.584 225.695 153.439C243.243 168.302 269.598 170.858 289.614 159.479C292.343 157.932 294.966 156.223 297.427 154.277C306.494 147 313.386 136.988 316.555 125.771ZM288.514 149.32C287.928 149.719 287.325 150.101 286.722 150.484C286.673 150.516 286.567 150.582 286.478 150.63C286.184 150.801 285.891 150.972 285.598 151.135C283.284 152.421 280.881 153.536 278.396 154.456C277.321 154.855 276.237 155.205 275.146 155.539C275.056 155.555 274.274 155.783 274.062 155.832C273.337 156.011 272.604 156.182 271.871 156.328C269.41 156.825 266.926 157.151 264.416 157.297C264.082 157.313 263.74 157.33 263.406 157.346C263.309 157.354 263.089 157.354 262.934 157.362C262.478 157.362 262.013 157.362 261.557 157.354C260.213 157.33 258.86 157.248 257.524 157.118C256.319 156.996 255.113 156.841 253.915 156.638C253.321 156.54 252.718 156.426 252.123 156.304C251.789 156.239 251.463 156.166 251.137 156.092C251.048 156.068 250.755 156.003 250.559 155.946C248.253 155.335 245.997 154.595 243.789 153.683C242.657 153.219 241.541 152.706 240.449 152.161C240.148 152.006 239.838 151.851 239.537 151.697C239.471 151.664 239.333 151.591 239.219 151.526C238.665 151.208 238.103 150.891 237.557 150.557C235.308 149.181 233.174 147.635 231.162 145.934C230.73 145.567 230.315 145.201 229.891 144.827C229.63 144.591 229.37 144.354 229.117 144.11C229.101 144.094 229.093 144.086 229.084 144.078C229.044 144.037 229.003 143.996 228.946 143.939C228.001 142.963 227.064 141.986 226.176 140.952C224.433 138.925 222.909 136.768 221.451 134.529C221.41 134.464 221.378 134.416 221.345 134.367C221.337 134.35 221.329 134.342 221.321 134.326C221.141 134.025 220.97 133.715 220.799 133.406C220.522 132.918 220.262 132.421 220.001 131.925C219.365 130.687 218.771 129.426 218.233 128.14C217.752 126.992 217.321 125.836 216.921 124.656C216.726 124.07 216.547 123.483 216.367 122.889C216.343 122.816 216.335 122.792 216.327 122.759C216.319 122.726 216.31 122.71 216.302 122.661C216.196 122.262 216.099 121.872 216.001 121.473C215.414 119.031 214.999 116.548 214.771 114.049C214.714 113.447 214.673 112.836 214.632 112.234C214.616 111.965 214.6 111.697 214.591 111.428C214.591 111.444 214.583 111.054 214.567 110.81C214.567 110.565 214.559 110.166 214.559 110.191C214.559 109.922 214.567 109.654 214.567 109.385C214.583 108.709 214.608 108.042 214.648 107.366C214.803 104.81 215.137 102.271 215.659 99.7635C215.716 99.503 215.773 99.2344 215.83 98.9739C215.822 98.9902 215.919 98.6076 215.976 98.3716C216.042 98.1355 216.139 97.7529 216.139 97.7692C216.213 97.5088 216.286 97.2483 216.359 96.9878C216.734 95.6935 217.166 94.4074 217.646 93.1376C218.078 91.998 218.551 90.8665 219.064 89.7595C219.292 89.2629 219.528 88.7745 219.773 88.2861C219.928 87.9849 220.082 87.6756 220.237 87.3744C220.278 87.2849 220.327 87.2035 220.376 87.1221C220.392 87.0895 220.416 87.057 220.449 86.9919C221.72 84.7778 223.121 82.6451 224.693 80.6345C225.467 79.6414 226.282 78.6809 227.121 77.7448C227.357 77.4844 227.594 77.2239 227.838 76.9715C227.854 76.9552 227.862 76.9471 227.871 76.939C227.911 76.8983 227.952 76.8576 228.009 76.8006C228.522 76.304 229.027 75.7994 229.549 75.3191C231.504 73.512 233.606 71.8515 235.814 70.3619C236.343 70.0037 236.881 69.6618 237.427 69.3118C237.5 69.263 237.549 69.2304 237.606 69.1978C237.858 69.0513 238.111 68.9048 238.363 68.7583C239.52 68.1071 240.71 67.4966 241.915 66.9349C244.213 65.8604 246.592 64.9813 249.019 64.2487C249.084 64.2406 250.086 63.9557 250.29 63.9068C250.885 63.7603 251.48 63.6219 252.082 63.4998C253.41 63.2231 254.755 63.0033 256.099 62.8242C257.304 62.6695 258.518 62.5556 259.732 62.4905C260.221 62.466 260.71 62.4498 261.199 62.4335C261.337 62.4335 261.5 62.4254 261.581 62.4254C261.989 62.4254 262.388 62.4335 262.795 62.4416C265.288 62.4986 267.773 62.7428 270.233 63.1579C271.382 63.3533 272.514 63.5812 273.647 63.858C273.785 63.8905 273.94 63.9312 274.021 63.9557C274.347 64.0452 274.673 64.1348 274.999 64.2324C275.651 64.4197 276.294 64.6232 276.938 64.8348C279.382 65.6488 281.777 66.65 284.074 67.814C284.27 67.9117 284.979 68.3024 285.06 68.3431C285.573 68.6362 286.087 68.9292 286.6 69.2467C287.716 69.9304 288.808 70.6549 289.867 71.4282C290.885 72.1608 291.871 72.9341 292.832 73.7399C293.313 74.1469 293.793 74.5621 294.258 74.9854C294.47 75.1726 294.673 75.368 294.877 75.5552C294.95 75.6203 294.991 75.661 295.032 75.7017C295.072 75.7424 295.113 75.7912 295.195 75.8726C297.101 77.8425 298.909 79.8694 300.531 82.0834C301.288 83.1254 302.005 84.1917 302.69 85.2743C302.738 85.3476 302.771 85.3964 302.804 85.4534C302.95 85.7058 303.097 85.9581 303.243 86.2104C303.626 86.8861 303.985 87.5617 304.335 88.2536C305.492 90.5409 306.478 92.9096 307.284 95.3435C307.455 95.8482 307.61 96.361 307.757 96.8738C307.732 96.825 308.042 97.9158 308.091 98.1274C308.4 99.381 308.661 100.651 308.873 101.921C309.077 103.125 309.231 104.33 309.354 105.543C309.411 106.145 309.459 106.756 309.492 107.358C309.516 107.692 309.533 108.034 309.541 108.368C309.541 108.465 309.557 108.791 309.557 108.994C309.582 111.42 309.427 113.854 309.109 116.255C308.946 117.46 308.751 118.648 308.506 119.837C308.4 120.366 308.278 120.887 308.156 121.416C308.132 121.505 308.107 121.595 308.099 121.636C307.985 122.026 307.887 122.417 307.773 122.808C307.056 125.274 306.152 127.692 305.076 130.036C304.824 130.59 304.555 131.143 304.278 131.689C304.189 131.876 303.683 132.804 303.667 132.844C303.024 133.96 302.364 135.059 301.647 136.133C300.213 138.274 298.616 140.309 296.881 142.205C296.685 142.425 296.482 142.637 296.286 142.849C296.246 142.889 296.197 142.93 296.14 142.995C295.683 143.443 295.227 143.89 294.755 144.33C293.753 145.266 292.71 146.153 291.643 147.008C290.624 147.814 289.582 148.587 288.514 149.32Z" fill="#958F99" stroke="#0F110E" stroke-miterlimit="10"/>
<path d="M221.345 159.625C221.345 159.625 222.738 157.647 222.787 157.118C222.836 156.589 221.044 153.764 220.188 152.788C219.333 151.811 217.769 150.622 217.141 150.476C216.514 150.329 216.31 151.575 215.968 151.29C215.626 150.997 214.502 150.484 214.103 150.956C213.703 151.42 213.891 152.592 213.891 152.592C213.891 152.592 213.386 152.503 212.799 152.535C212.213 152.56 211.96 153.064 211.903 153.553C211.846 154.041 211.928 154.09 211.463 154.342C210.999 154.595 210.917 155.466 210.893 156.54C210.868 157.615 211.716 164.314 211.463 164.615C211.211 164.916 207.52 167.407 206.73 168.107C205.94 168.807 205.891 169.971 206.143 169.825C206.396 169.67 209.801 167.155 212.384 166.927C214.974 166.699 216.873 165.356 217.451 164.574C218.038 163.785 221.345 159.625 221.345 159.625Z" fill="white"/>
<path d="M215.756 162.531C215.756 162.531 213.443 154.839 211.993 154.497C210.543 154.155 210.803 156.182 210.999 159.927L211.545 164.111" stroke="#0F110E" stroke-miterlimit="10"/>
<path d="M217.647 160.521C217.647 160.521 215.406 155.206 215.121 154.782C214.836 154.359 213.981 152.462 212.791 152.519C211.61 152.576 211.862 154.652 211.862 154.652" stroke="#0F110E" stroke-miterlimit="10"/>
<path d="M220.571 158.445C220.571 158.445 216.864 151.371 215.341 150.834C213.817 150.297 213.573 151.518 214.021 153.146" stroke="#0F110E" stroke-miterlimit="10"/>
<path d="M216.465 151.836C216.465 151.836 215.748 149.695 218.127 150.843C219.716 151.608 222.64 156.036 222.779 157.111C222.917 158.185 219.227 161.938 218.038 163.786C216.848 165.634 214.811 167.017 211.716 166.912C210.184 166.863 207.178 169.264 205.117 171.095" stroke="#0F110E" stroke-miterlimit="10"/>
<path d="M110.306 214.017C110.306 214.017 136.734 221.481 142.135 219.723C146.665 218.25 133.508 216.296 133.508 216.296C133.508 216.296 142.738 218.583 143.65 216.768C144.563 214.953 133.907 213.48 133.907 213.48C133.907 213.48 144.685 215.474 144.97 213.781C145.255 212.088 134.208 210.728 134.208 210.728C134.208 210.728 145.149 212.869 145.524 210.899C145.899 208.929 134.624 207.602 134.624 207.602C134.624 207.602 141.728 207.586 141.369 206.04C141.011 204.485 126.51 205.478 115.39 201.709C109.019 199.544 110.306 214.017 110.306 214.017Z" fill="white"/>
<path d="M134.901 211.168C137.418 211.689 140.025 212.112 142.607 212.071C143.479 212.055 145.687 212.096 145.785 210.818C145.866 209.727 144.335 209.19 143.544 208.905C141.907 208.319 140.155 208.01 138.436 207.741C137.28 207.562 136.123 207.399 134.958 207.293C134.958 207.497 134.958 207.7 134.958 207.904C135.846 207.896 136.734 207.855 137.614 207.79C138.705 207.708 140.09 207.7 141.084 207.171C142.029 206.675 141.964 205.828 141.035 205.388C139.886 204.851 138.396 204.859 137.141 204.729C134.07 204.412 130.998 204.216 127.927 203.956C125.337 203.736 122.746 203.117 120.196 202.596C117.695 202.084 115.153 201.603 112.693 200.903C112.31 200.798 112.155 201.384 112.53 201.489C116.799 202.694 121.255 203.524 125.63 204.249C127.74 204.599 129.858 204.672 131.984 204.859C133.548 204.99 135.113 205.136 136.669 205.299C137.939 205.429 139.43 205.421 140.628 205.893C141.719 206.325 140.351 206.813 139.87 206.911C139.161 207.057 138.436 207.122 137.719 207.171C136.799 207.244 135.878 207.285 134.95 207.293C134.55 207.301 134.567 207.863 134.95 207.904C137.777 208.181 140.766 208.547 143.447 209.524C143.911 209.695 144.872 209.996 145.092 210.517C145.434 211.339 143.764 211.404 143.308 211.437C140.571 211.632 137.728 211.135 135.056 210.582C134.681 210.492 134.518 211.087 134.901 211.168Z" fill="#0F110E"/>
<path d="M134.412 213.854C136.579 214.278 138.762 214.644 140.962 214.888C142.037 215.01 143.308 215.23 144.375 214.937C145.157 214.725 145.809 214.025 145.337 213.211C145.027 212.674 144.408 212.34 143.854 212.112C142.836 211.689 141.736 211.51 140.644 211.396C140.253 211.355 140.253 211.966 140.644 212.006C141.581 212.104 142.526 212.259 143.414 212.584C143.878 212.755 144.424 213 144.734 213.407C145.198 214.025 144.4 214.343 143.878 214.408C142.819 214.53 141.695 214.367 140.644 214.245C139.333 214.09 138.021 213.887 136.717 213.659C136.001 213.537 135.284 213.407 134.575 213.268C134.192 213.195 134.029 213.781 134.412 213.854Z" fill="#0F110E"/>
<path d="M134.616 216.858C135.781 217.102 136.97 217.289 138.151 217.452C139.642 217.656 141.312 217.941 142.811 217.623C143.316 217.517 143.992 217.273 144.139 216.711C144.294 216.133 143.756 215.661 143.324 215.385C142.159 214.628 140.669 214.326 139.324 214.066C138.941 213.993 138.779 214.579 139.161 214.652C140.302 214.872 141.491 215.124 142.542 215.645C142.827 215.783 143.137 215.946 143.357 216.182C143.471 216.304 143.561 216.451 143.552 216.532C143.544 216.614 143.447 216.72 143.308 216.801C143.072 216.947 142.779 217.013 142.51 217.061C141.108 217.297 139.552 217.037 138.159 216.842C137.027 216.687 135.895 216.5 134.778 216.264C134.396 216.19 134.233 216.776 134.616 216.858Z" fill="#0F110E"/>
<path d="M138.917 217.55C139.438 217.631 139.96 217.729 140.473 217.835C141.174 217.981 142.273 218.103 142.836 218.592C142.982 218.722 143.047 218.836 142.958 219.064C142.73 219.609 141.866 219.764 141.361 219.853C139.52 220.187 137.54 219.983 135.699 219.78C133.426 219.536 131.259 219.015 129.035 218.502C125.671 217.729 122.306 216.939 118.958 216.109C117.198 215.677 115.438 215.23 113.695 214.749C112.62 214.456 111.487 214.188 110.461 213.732C110.102 213.577 109.793 214.098 110.151 214.261C112.628 215.36 115.463 215.865 118.078 216.516C121.776 217.436 125.491 218.307 129.214 219.161C131.854 219.764 134.371 220.301 137.084 220.513C138.713 220.635 140.522 220.773 142.111 220.301C142.673 220.13 143.341 219.845 143.544 219.235C143.642 218.95 143.618 218.6 143.455 218.339C143.072 217.737 141.988 217.55 141.361 217.395C140.612 217.208 139.846 217.061 139.08 216.947C138.697 216.907 138.534 217.493 138.917 217.55Z" fill="#0F110E"/>
<path d="M101.508 172.047L120.897 142.629C120.897 142.629 114.347 143.614 105.548 148.197C99.0147 151.599 91.1124 157.248 84.424 164.615C80.7987 168.604 77.4504 172.511 74.6806 178.038C72.1062 183.199 69.092 187.22 67.8618 191.062C62.485 207.92 69.5563 213.789 77.8252 215.987C87.8374 218.64 111.976 219.055 111.976 219.055L119.349 199.593L95.365 192.047C95.3568 192.055 98.7295 179.145 101.508 172.047Z" fill="#6348ED"/>
<path d="M120.897 142.629C120.897 142.629 95.3567 146.202 76.1551 175.718C58.1672 203.37 67.8047 213.341 77.817 215.995C87.8292 218.648 111.968 219.064 111.968 219.064L119.341 199.601L88.3913 189.865" stroke="#010001" stroke-miterlimit="10" stroke-linecap="round"/>
<path d="M95.3567 192.055C95.3567 192.055 98.7294 179.145 101.507 172.047" stroke="#010001" stroke-miterlimit="10" stroke-linecap="round"/>
<path d="M119.349 199.601L112.636 197.493L105.23 218.86C109.239 219.023 111.976 219.072 111.976 219.072L119.349 199.601Z" fill="#6348ED" stroke="#010001" stroke-miterlimit="10"/>
<path d="M132.44 149.06C132.44 152.194 128.872 154.741 124.465 154.741C120.057 154.741 116.489 152.194 116.489 149.06C116.489 145.926 120.057 143.378 124.465 143.378C128.872 143.378 132.44 145.926 132.44 149.06Z" fill="white" stroke="#010001" stroke-miterlimit="10" stroke-linecap="round"/>
<path d="M126.151 146.756H123.569H119.927L120.351 149.857L123.064 154.383H124.245H125.475H126.656L129.361 149.857L129.785 146.756H126.151Z" fill="#F19101"/>
<path d="M123.276 154.766C124.359 154.766 125.451 154.766 126.534 154.766C127.056 154.766 127.056 153.952 126.534 153.952C125.451 153.952 124.359 153.952 123.276 153.952C122.746 153.952 122.746 154.766 123.276 154.766Z" fill="#010001"/>
<path d="M124.4 140.146C117.809 140.146 112.465 143.753 112.465 148.205C112.465 152.658 117.809 156.264 124.4 156.264C130.99 156.264 136.335 152.658 136.335 148.205C136.335 143.753 130.99 140.146 124.4 140.146ZM124.4 153.447C120.106 153.447 116.628 151.095 116.628 148.197C116.628 145.299 120.106 142.947 124.4 142.947C128.693 142.947 132.172 145.299 132.172 148.197C132.172 151.095 128.693 153.447 124.4 153.447Z" fill="#6348ED" stroke="#010001" stroke-miterlimit="10" stroke-linecap="round"/>
<path d="M134.624 144.045L130.037 140.244L125.255 138.429L123.846 138.657L118.762 140.244L114.575 143.606L117.907 153.268L124.4 148.01L130.892 153.268L134.624 144.045Z" fill="white" stroke="#010001" stroke-miterlimit="10" stroke-linecap="round"/>
<path d="M132.954 110.932H126.827C122.754 110.932 119.422 114.725 119.422 119.357V128.848C119.422 129.116 119.438 129.377 119.455 129.637C119.389 129.914 119.349 130.207 119.349 130.508V136.288V136.613V142.393C119.349 144.493 121.068 146.202 123.161 146.202H125.589C127.691 146.202 129.402 144.485 129.402 142.393V137.281H132.945C137.019 137.281 140.351 133.488 140.351 128.856V119.365C140.359 114.725 137.027 110.932 132.954 110.932Z" fill="white" stroke="#010001" stroke-miterlimit="10"/>
<path d="M120.139 124.094C120.139 124.094 121.524 116.101 121.899 117.281C122.428 118.966 122.371 128.294 124.18 129.117C126.575 130.199 127.455 126.105 132.286 125.942C137.117 125.779 139.886 128.148 140.359 130.077C140.831 132.006 138.339 134.758 136.823 136.027C134.925 137.615 129.41 137.281 129.41 137.281C129.41 137.281 124.636 137.574 122.632 134.758C120.554 131.819 120.139 124.094 120.139 124.094Z" fill="#010001"/>
<path d="M128.098 122.458C128.098 123.223 128.717 123.842 129.483 123.842C130.249 123.842 130.868 123.223 130.868 122.458C130.868 121.693 130.249 121.074 129.483 121.074C128.709 121.082 128.098 121.701 128.098 122.458Z" fill="#010001"/>
<path d="M137.141 122.263C137.141 122.914 137.67 123.443 138.322 123.443C138.974 123.443 139.503 122.914 139.503 122.263C139.503 121.612 138.974 121.083 138.322 121.083C137.662 121.083 137.141 121.612 137.141 122.263Z" fill="#010001"/>
<path d="M135.821 127.904C135.821 127.904 135.129 129.923 133.662 130.061C132.196 130.199 131.047 128.571 130.966 127.31L135.821 127.904Z" fill="white"/>
<path d="M127.699 120.83C128.082 120.684 128.481 120.561 128.88 120.472C129.076 120.423 129.271 120.382 129.467 120.35C129.573 120.334 129.679 120.317 129.785 120.301C129.931 120.277 129.711 120.309 129.858 120.293C129.915 120.285 129.98 120.277 130.037 120.268C130.249 120.244 130.453 120.098 130.444 119.861C130.436 119.658 130.265 119.43 130.037 119.454C129.165 119.544 128.302 119.739 127.479 120.049C127.284 120.122 127.121 120.325 127.194 120.553C127.259 120.741 127.487 120.903 127.699 120.83Z" fill="#010001"/>
<path d="M136.636 119.764C136.823 119.747 137.011 119.747 137.19 119.755C137.271 119.755 137.353 119.764 137.426 119.772C137.483 119.78 137.532 119.78 137.581 119.788C137.597 119.788 137.711 119.804 137.63 119.796C137.988 119.845 138.33 119.934 138.673 120.057C138.876 120.13 139.129 119.975 139.178 119.772C139.227 119.544 139.104 119.348 138.893 119.267C138.176 119.007 137.394 118.901 136.628 118.95C136.416 118.966 136.212 119.129 136.22 119.357C136.237 119.56 136.408 119.78 136.636 119.764Z" fill="#010001"/>
<path d="M134.053 121.05C134.29 121.603 134.534 122.149 134.795 122.694C134.925 122.954 135.056 123.207 135.194 123.467C135.259 123.589 135.324 123.711 135.39 123.834C135.422 123.89 135.455 123.956 135.487 124.013C135.512 124.053 135.536 124.094 135.552 124.135C135.561 124.135 135.552 124.127 135.544 124.127C135.561 124.061 135.585 123.988 135.601 123.923C135.593 123.939 135.585 123.947 135.577 123.964C135.626 123.915 135.675 123.866 135.724 123.817C135.642 123.866 135.43 123.89 135.308 123.915C135.153 123.947 135.007 123.98 134.852 124.013C134.534 124.078 134.216 124.143 133.899 124.2C133.679 124.24 133.557 124.501 133.614 124.704C133.679 124.932 133.899 125.03 134.119 124.989C134.64 124.9 135.153 124.794 135.667 124.672C135.927 124.607 136.212 124.566 136.326 124.289C136.44 124.013 136.269 123.76 136.139 123.524C135.65 122.661 135.21 121.766 134.827 120.854C134.746 120.651 134.559 120.504 134.322 120.569C134.151 120.602 133.972 120.846 134.053 121.05Z" fill="#010001"/>
<path d="M121.019 125.779L122.151 118.347C122.151 118.347 142.738 120.928 149.41 110.932C156.082 100.944 149.068 96.9879 145.679 97.5496C142.282 98.1112 138.314 102.971 138.314 102.971C138.314 102.971 141.475 98.6729 138.314 97.9973C135.153 97.3217 131.666 100.594 129.85 103.988C129.85 103.988 116.277 102.727 111.691 110.932C107.104 119.137 110.493 125.095 118.884 133.569L121.116 128.107L121.019 125.779Z" fill="#010001"/>
<path d="M121.654 126.349C121.654 129.035 119.479 131.208 116.791 131.208C114.102 131.208 111.927 129.035 111.927 126.349C111.927 123.663 114.102 121.489 116.791 121.489C119.479 121.489 121.654 123.663 121.654 126.349Z" fill="white" stroke="#010001" stroke-miterlimit="10"/>
<path d="M119.552 126.577C119.626 125.404 119.072 124.086 117.964 123.581C117.369 123.304 116.701 123.255 116.057 123.321C115.878 123.337 115.723 123.459 115.723 123.654C115.723 123.825 115.878 124.013 116.057 123.988C116.351 123.956 116.644 123.947 116.937 123.98C117.035 123.988 117.108 124.004 117.239 124.029C117.353 124.053 117.459 124.094 117.573 124.126C117.589 124.135 117.613 124.143 117.63 124.151C117.556 124.118 117.646 124.159 117.654 124.167C117.695 124.192 117.736 124.208 117.784 124.232C117.874 124.281 117.956 124.338 118.037 124.395C117.972 124.346 118.078 124.428 118.094 124.444C118.127 124.468 118.159 124.501 118.192 124.533C118.257 124.599 118.314 124.664 118.379 124.737C118.322 124.664 118.404 124.77 118.412 124.786C118.436 124.818 118.461 124.851 118.477 124.884C118.526 124.957 118.567 125.03 118.599 125.111C118.615 125.152 118.632 125.185 118.656 125.225C118.681 125.274 118.624 125.144 118.656 125.217C118.664 125.234 118.672 125.25 118.681 125.266C118.713 125.347 118.738 125.421 118.762 125.502C118.803 125.641 118.835 125.771 118.86 125.909C118.868 125.942 118.868 125.966 118.876 125.999C118.892 126.088 118.868 125.925 118.876 126.015C118.884 126.072 118.892 126.129 118.892 126.186C118.901 126.316 118.909 126.446 118.901 126.568C118.892 126.748 119.064 126.902 119.235 126.902C119.406 126.91 119.536 126.756 119.552 126.577Z" fill="#010001"/>
<path d="M25.3443 374.44C30.2975 374.44 35.2507 374.44 40.2038 374.44C53.5644 374.44 66.9167 374.44 80.2773 374.44C100.082 374.44 119.886 374.44 139.691 374.44C163.854 374.44 188.017 374.44 212.18 374.44C238.551 374.44 264.93 374.44 291.3 374.44C318.103 374.44 344.905 374.44 371.708 374.44C396.531 374.44 421.346 374.44 446.168 374.44C467.219 374.44 488.27 374.44 509.321 374.44C524.458 374.44 539.586 374.44 554.723 374.44C561.876 374.44 569.037 374.546 576.181 374.44C576.491 374.432 576.808 374.44 577.118 374.44C578.43 374.44 578.43 372.405 577.118 372.405C572.165 372.405 567.212 372.405 562.258 372.405C548.898 372.405 535.546 372.405 522.185 372.405C502.38 372.405 482.576 372.405 462.771 372.405C438.608 372.405 414.445 372.405 390.282 372.405C363.912 372.405 337.533 372.405 311.162 372.405C284.359 372.405 257.557 372.405 230.754 372.405C205.931 372.405 181.117 372.405 156.294 372.405C135.243 372.405 114.192 372.405 93.1409 372.405C78.0044 372.405 62.876 372.405 47.7395 372.405C40.5867 372.405 33.4258 372.299 26.2812 372.405C25.9716 372.413 25.6539 372.405 25.3443 372.405C24.0327 372.405 24.0327 374.44 25.3443 374.44Z" fill="#0F110E"/>
</svg>
