<svg width="99" height="29" viewBox="0 0 99 29" fill="none" xmlns="http://www.w3.org/2000/svg">
<circle cx="14.5" cy="14.5" r="14.5" fill="white"/>
<path d="M15.88 22V8H18.02L24.14 18.22H23.02L29.04 8H31.18L31.2 22H28.74L28.72 11.86H29.24L24.12 20.4H22.96L17.76 11.86H18.36V22H15.88Z" fill="#6348ED"/>
<path d="M35.6216 26.02C35.1016 26.02 34.5816 25.9333 34.0616 25.76C33.5416 25.5867 33.1082 25.3467 32.7616 25.04L33.7616 23.2C34.0149 23.4267 34.3016 23.6067 34.6216 23.74C34.9416 23.8733 35.2682 23.94 35.6016 23.94C36.0549 23.94 36.4216 23.8267 36.7016 23.6C36.9816 23.3733 37.2416 22.9933 37.4816 22.46L38.1016 21.06L38.3016 20.76L42.3416 11.32H44.7416L39.7416 22.86C39.4082 23.66 39.0349 24.2933 38.6216 24.76C38.2216 25.2267 37.7682 25.5533 37.2616 25.74C36.7682 25.9267 36.2216 26.02 35.6216 26.02ZM37.8216 22.38L33.0016 11.32H35.6016L39.5216 20.54L37.8216 22.38ZM46.5441 22V8H53.1041C54.7841 8 56.0641 8.33333 56.9441 9C57.8241 9.65333 58.2641 10.5333 58.2641 11.64C58.2641 12.3867 58.0907 13.0267 57.7441 13.56C57.3974 14.08 56.9307 14.4867 56.3441 14.78C55.7707 15.06 55.1441 15.2 54.4641 15.2L54.8241 14.48C55.6107 14.48 56.3174 14.6267 56.9441 14.92C57.5707 15.2 58.0641 15.6133 58.4241 16.16C58.7974 16.7067 58.9841 17.3867 58.9841 18.2C58.9841 19.4 58.5241 20.3333 57.6041 21C56.6841 21.6667 55.3174 22 53.5041 22H46.5441ZM49.1441 19.96H53.3441C54.3174 19.96 55.0641 19.8 55.5841 19.48C56.1041 19.16 56.3641 18.6467 56.3641 17.94C56.3641 17.2467 56.1041 16.74 55.5841 16.42C55.0641 16.0867 54.3174 15.92 53.3441 15.92H48.9441V13.9H52.8241C53.7307 13.9 54.4241 13.74 54.9041 13.42C55.3974 13.1 55.6441 12.62 55.6441 11.98C55.6441 11.3267 55.3974 10.84 54.9041 10.52C54.4241 10.2 53.7307 10.04 52.8241 10.04H49.1441V19.96ZM68.0989 22V19.84L67.9589 19.38V15.6C67.9589 14.8667 67.7389 14.3 67.2989 13.9C66.8589 13.4867 66.1922 13.28 65.2989 13.28C64.6989 13.28 64.1056 13.3733 63.5189 13.56C62.9456 13.7467 62.4589 14.0067 62.0589 14.34L61.0789 12.52C61.6522 12.08 62.3322 11.7533 63.1189 11.54C63.9189 11.3133 64.7456 11.2 65.5989 11.2C67.1456 11.2 68.3389 11.5733 69.1789 12.32C70.0322 13.0533 70.4589 14.1933 70.4589 15.74V22H68.0989ZM64.7389 22.14C63.9389 22.14 63.2389 22.0067 62.6389 21.74C62.0389 21.46 61.5722 21.08 61.2389 20.6C60.9189 20.1067 60.7589 19.5533 60.7589 18.94C60.7589 18.34 60.8989 17.8 61.1789 17.32C61.4722 16.84 61.9456 16.46 62.5989 16.18C63.2522 15.9 64.1189 15.76 65.1989 15.76H68.2989V17.42H65.3789C64.5256 17.42 63.9522 17.56 63.6589 17.84C63.3656 18.1067 63.2189 18.44 63.2189 18.84C63.2189 19.2933 63.3989 19.6533 63.7589 19.92C64.1189 20.1867 64.6189 20.32 65.2589 20.32C65.8722 20.32 66.4189 20.18 66.8989 19.9C67.3922 19.62 67.7456 19.2067 67.9589 18.66L68.3789 20.16C68.1389 20.7867 67.7056 21.2733 67.0789 21.62C66.4656 21.9667 65.6856 22.14 64.7389 22.14ZM79.7273 11.2C80.5807 11.2 81.3407 11.3667 82.0073 11.7C82.6873 12.0333 83.2207 12.5467 83.6073 13.24C83.994 13.92 84.1873 14.8 84.1873 15.88V22H81.6873V16.2C81.6873 15.2533 81.4607 14.5467 81.0073 14.08C80.5673 13.6133 79.9473 13.38 79.1473 13.38C78.5607 13.38 78.0407 13.5 77.5873 13.74C77.134 13.98 76.7807 14.34 76.5273 14.82C76.2873 15.2867 76.1673 15.88 76.1673 16.6V22H73.6673V11.32H76.0473V14.2L75.6273 13.32C76.0007 12.64 76.5407 12.12 77.2473 11.76C77.9673 11.3867 78.794 11.2 79.7273 11.2ZM89.3988 19.62L89.4588 16.48L95.0388 11.32H98.0388L93.2988 16.08L91.9788 17.18L89.3988 19.62ZM87.3588 22V7.16H89.8588V22H87.3588ZM95.4188 22L91.5188 17.18L93.0988 15.18L98.4588 22H95.4188Z" fill="white"/>
</svg>
